<svg id="Layer_1" data-name="Layer 1" xmlns="http://www.w3.org/2000/svg" viewBox="0 0 1030.45 609.35"><defs><style>.cls-1{fill:none;}.cls-2{opacity:0.71;}.cls-3{fill:#df411d;}.cls-4{fill:#ff724c;}.cls-5{fill:#ff9a47;}.cls-6{fill:#ffb097;}.cls-7{opacity:0.94;}.cls-8{opacity:0.07;}.cls-9{opacity:0.21;}.cls-10{fill:#f24000;}.cls-11{fill:#ffc3ac;}.cls-12{opacity:0.57;}.cls-13{fill:#ffa15b;}.cls-14{opacity:0.09;}.cls-15{opacity:0.06;}.cls-16{opacity:0.68;}.cls-17{opacity:0.58;}.cls-18{fill:#ffa27e;}</style></defs><path class="cls-1" d="M-68.8,91.46c23.94,8.31,53,12.29,81.79,15.2,248.61,25.21,505.54,19,758.73,28.45,85.21,3.17,169.34-24.61,254.27-20"/><g class="cls-2"><path class="cls-3" d="M1127.48,140.74c-5.63.55-11.27,1.09-16.83,1.69-25.59,3.3-50.82,7.58-76.16,12-12.64,2.33-25.34,4.57-38,7l-38.38,7.15-19.38,3.56-19.55,3.42-9.83,1.71-9.9,1.6-19.94,3.15c-26.76,4-54.13,7.39-82.35,9.64-9.94.44-20,1-30.18,1.86s-20.46,1.67-30.8,2.74-20.75,2.14-31.23,3.35l-31.8,3.66c-21.42,2.45-43.32,4.7-65.3,6-11,.64-22,1.05-33,1.15s-21.95-.2-32.74-.81a598.39,598.39,0,0,0,76.07,2.48c25-.7,49.54-2.6,73.53-4.88l17.9-1.77,17.78-1.9c11.86-1.21,23.7-2.67,35.57-4l35.54-4.3c11.83-1.54,23.68-2.93,35.49-4.53,94.61-12.21,188.19-26.05,280.13-34.43a145.15,145.15,0,0,1-25.65,21.45,118.25,118.25,0,0,1-15.63,8.41,105.34,105.34,0,0,1-17.67,6.09c-30.56,5.48-60.93,10.6-91.11,15.63s-60.2,9.78-90.1,14.32c-.87-4.63-2.57-13.69-3.42-18.24-41.3,11.3-82.78,18.46-124.17,23.26-20.75,2.35-41.18,4.25-62.41,5.66-10.61.69-21.34,1.28-32.21,1.7s-21.9.67-33,.75c-22.31.11-45.12-.53-68.4-2.34l-8.74-.72c-2.9-.28-5.83-.52-8.7-.83q-8.66-.88-17.11-1.92c-11.28-1.35-22.28-2.87-33.06-4.38s-21.34-3-31.67-4.41-20.41-2.61-30.62-3.65c-20.39-2.1-41.1-3.52-62.27-4.15,5.46,3.45,1.34,6.62-.39,9.39l-1.17-.18,1.17.18c-1.54,2.42-1.21,4.56,9.1,6.31-10.31-1.75-10.64-3.89-9.1-6.31q30.71,4.34,60.55,8.76l30,4.57c10.19,1.56,20.66,3.14,31.41,4.64s21.76,2.91,33.1,4.11c5.68.6,11.39,1.16,17.22,1.63s11.73.89,17.6,1.2c11.77.65,23.41,1,34.86,1s22.79-.13,33.91-.55c22.29-.79,43.9-2.35,64.93-4.15,10.49-.91,20.88-1.87,31.09-2.86l30.64-3c40.92-4.2,82.16-8.94,124.05-14.39q-47.45,7.13-94.57,13.5l-23.57,3.08c-7.85,1.06-15.71,2-23.56,3s-15.67,2-23.63,2.9l-12,1.39-12.16,1.34c-32.56,3.5-66.88,6.23-102.81,6.27-9,0-18.07-.16-27.27-.58l-6.89-.3-6.87-.41c-4.55-.31-9.08-.64-13.53-1-17.85-1.53-34.92-3.65-51.22-5.94-8.15-1.15-16.11-2.34-23.88-3.52l-22.9-3.5-45.61-7c-30.57-4.73-61.47-9.64-92.7-15s-62.79-11.25-94.66-17.92c-8-1.69-16-3.35-24-5.17l-12-2.68-12-2.82L129.14,186,117,183c-4-1-8.07-2-12.11-3.07l-3-.79-3.84-1q-5.55-1.41-11.08-3c-5.51-1.68-11.08-3.34-16.47-5.56a158.38,158.38,0,0,1-15.87-7.51c-4.62-2.54-10.32-5.86-16.33-10-3-2-6.12-4.24-9.25-6.54l-4.7-3.5-2.93-2.21c-3.36-2.55-5.61-4.21-6.87-5.09l-.47-.33L14,134.4l-.06,0-.1-.07-.38-.26,0,0h0l.13-.2.32-.49c.41-.65.83-1.29,1.24-1.93q2.46-3.87,4.73-7.61l2.22-3.72,1.07-1.83c.19-.34.3-.48.44-.72l.42-.66c1.08-1.74,2.12-3.44,3.1-5.11,2-3.33,3.86-6.8,5.62-10.17Q35,97.79,37,93.73c.66-1.34,1.3-2.71,1.92-4.08a8.84,8.84,0,0,1,.43-.87l.39-.79.77-1.58q1.5-3.18,2.74-6.53l1.08-2.63c.34-.86.65-1.73,1-2.61s.56-1.78.81-2.68c.24-.73.46-1.35.66-2s.39-1.37.55-2.07l.22-1.06.1-.54,0-.27.05-.18a20.08,20.08,0,0,0,.56-3.07l.07-.81v-.2l0-.13,0-.24q.06-.49.09-1c0-.66,0-1.62,0-1.77a5.59,5.59,0,0,0-.12-1.1s0,0,0-.06v0h0l0,.13c0,.16.1.31.16.46a3.52,3.52,0,0,0,.17.39l.1.18L49,59a10.52,10.52,0,0,0,.93,1.66l.27.38.39.65c.26.43.54.84.83,1.24s.59.77.9,1.14a14.34,14.34,0,0,1,1.06,1.25,31.94,31.94,0,0,0,2.67,3q.7.69,1.44,1.32c.11.09.26.26.41.41l.45.46.92.9a49.74,49.74,0,0,0,3.83,3.32l1,.75.5.37.25.18.3.25c.8.68,1.61,1.34,2.42,2q2.46,1.92,5,3.61c.86.56,1.72,1.1,2.6,1.63l3,2.07q3.06,2.06,6.23,3.89c1.06.61,2.12,1.21,3.19,1.78l1.61.86.4.2.1.06c-3.33-1.89,29.5,16.63,15.58,8.82l-.08.11-.32.45-2.54,3.6-2.57,3.57c-.44.6-.83,1.15-1.32,1.78L97,112.51l-3,3.73-1.51,1.84c-.5.62-1,1.21-1.59,1.88q-3.44,3.89-7,7.64c-2.59,2.61-5.32,5.2-8.06,7.7-.65.61-1.46,1.27-2.2,1.91l-2.3,1.9c-1.53,1.26-3.09,2.5-4.65,3.71-3.28,2.46-6.78,4.84-10.26,7.09-3.69,2.23-7.39,4.38-11.25,6.32-2,1-3.92,1.87-5.9,2.76l-3,1.31-3,1.17c-2,.76-4,1.48-6,2.18s-4,1.23-6,1.81-4.05,1.12-6,1.55-3.86.82-5.79,1.2l-2.91.53-2.74.4c-1.82.25-3.65.49-5.49.7a175.45,175.45,0,0,1-33.87-.05c-4-.37-7.61-.77-10-1l-3.23-.33-.59-.06-.42,0-.43,0-.21,0h-.08c0-.4.09-.77.12-1.11s.17-.78.24-1.13c.15-.77.29-1.55.41-2.36q.36-2.41.54-5c.25-3.48.27-7.2.17-11-.08-1.89-.09-3.78-.1-5.67s-.06-3.88-.09-5.63A100.65,100.65,0,0,1-49,125.68a31.21,31.21,0,0,1,.8-4.8,16.24,16.24,0,0,1,.7-2.21,14.59,14.59,0,0,1,1.09-2A15.15,15.15,0,0,1-45,114.8a14.6,14.6,0,0,1,1.92-1.61c.36-.25.73-.49,1.12-.72s.86-.45,1.31-.66a20.78,20.78,0,0,1,3.06-1.11,33.48,33.48,0,0,1,3.78-.85c.7-.12,1.43-.24,2.17-.34l2.44-.29c1.64-.16,3.58-.34,5.57-.47s4.25-.29,6.76-.54A110.56,110.56,0,0,0,.77,105.45a76.43,76.43,0,0,0,22.06-9.39L11.9,80.9a38.62,38.62,0,0,1-18,3.17,43.36,43.36,0,0,1-15-4C-29.95,76-36.77,70.29-44.54,65-53,59.64-60.42,55.08-66.83,51.43s-11.29-7-14.77-11.19a31.57,31.57,0,0,1-5.24-15.63,27.32,27.32,0,0,1,.12-4c.07-.68.16-1.35.28-2,.06-.34.12-.67.21-1s.25-.77.38-1.16a34.19,34.19,0,0,1,2.15-4.77,34.43,34.43,0,0,1,3.34-4.83C-75.09.38-65.87-5.75-52.65-9.6c9.17-1.94,16.94-2.93,22.45-4s9-2.08,9.12-3.28l0,0h0v.77l0,2.6,0,2.49-.05,1.62q-.12,3.23-.13,6.48c0,2.17,0,4.34.07,6.52l.09,3.22V9c0,2.94.17,5.89.41,8.86l.09,1.08,0,.78.09,1.55c.07,1,.16,2.08.28,3.13s.26,2.13.4,3.11c.06.73.14,1.46.25,2.2s.22,1.47.35,2.21l.23,1.12c0,.17.09.41.1.51l.06.38a28,28,0,0,0,.66,3l.2.72.11.45c.08.31.16.61.26.92s.2.63.32.94a1.87,1.87,0,0,1,.1.3l.07.2c.09.26.22.57.35.85l-.34-.6c-.09-.15-.17-.28-.26-.41l-.13-.19-.07-.09-.13-.2a16.22,16.22,0,0,0-1.13-1.57l-.3-.35c-.09-.11-.18-.21-.35-.44s-.6-.76-.91-1.12a25,25,0,0,0-1.93-2c-.87-1-1.76-1.88-2.69-2.73s-1.77-1.49-3.06-2.72q-1.8-1.62-3.69-3l-1.94-1.42c-.76-.62-1.53-1.21-2.31-1.79-1.56-1.17-3.15-2.26-4.77-3.29L-42,18.6c-.21-.13-.39-.23-.62-.39l-.71-.49q-1.42-1-2.88-1.89c-1.93-1.24-3.9-2.4-5.89-3.5l-1.5-.81-.75-.39L-69.12,2.8l.06-.09.1-.19.21-.38,1.7-3q1.72-3,3.54-6l.45-.75.23-.37.28-.43,1.14-1.72,2.34-3.41,2.4-3.38,1.23-1.67.32-.42.38-.49.77-1c2.06-2.56,4.2-5.08,6.39-7.55l1.66-1.84,2-2.08q2.09-2.08,4.23-4.1t4.37-4c.68-.61,1.63-1.38,2.52-2.09L-30-44.27c1.83-1.4,3.69-2.77,5.57-4.09l2.85-2c.45-.31,1-.67,1.57-1l1.67-1c2.23-1.35,4.51-2.65,6.82-3.89,1.15-.62,2.31-1.22,3.48-1.81s2.28-1.16,3.62-1.74a150.94,150.94,0,0,1,15.91-6.05,151.1,151.1,0,0,1,17-3.94,149.28,149.28,0,0,1,16.91-1.59,153.39,153.39,0,0,1,15.76.51c.68,0,1.21.12,1.81.18l1.74.21,3.48.48c2.32.34,4.64.73,6.94,1.16l.86.17.76.17,1.5.33,3,.72q3,.73,5.93,1.58l1.48.43,1.26.4,2.51.83c1.67.57,3.34,1.16,5,1.77.81.3,1.7.62,2.44.92l2.1.86c1.4.59,2.79,1.19,4.18,1.8a181.52,181.52,0,0,1,24.53,13.46l4.32,2.89,2,1.35,1.87,1.32,1.82,1.3,1.62,1.18,3.11,2.3,5.21,3.94,2.05,1.57.16.14a6,6,0,0,0,.42.46,4.54,4.54,0,0,0,1,.89c.07,0,.12,0,.17.13l0,0v0s-.05,0,.1,0l1.26.37,2.52.73c3.34,1,6.74,1.91,10.14,2.86,6.79,1.88,13.6,3.8,20.52,5.58l10.36,2.71L209.72-13l10.48,2.54,10.57,2.39a759.89,759.89,0,0,0,85.64,14.4l64.32,8.1c21.58,2.72,43.26,5.59,65,8.87q8.17,1.23,16.34,2.55t16.14,2.7c10.52,1.8,20.68,3.65,30.34,5.41l27.82,5.13,13,2.36c2.12.38,4.24.77,6.36,1.12s4.23.78,6.41,1.11a299.87,299.87,0,0,0,37.64,4.15c13.2.63,27,.6,41.26.09s29.08-1.55,44.27-2.79,30.56-2.7,45.84-4.27l91.56-9.54c30.38-3.11,60.55-5.84,90.41-7.47C934.72,21.69,963,12.78,988.86,5.33c12.89-3.8,25.2-7.11,35.77-9.14a93.09,93.09,0,0,1,14.48-1.71,32.61,32.61,0,0,1,11.1,1.2c16.66,2.48,19.92,11.91,20.52,23.23C1001.37,36.09,931.86,51.7,862.41,63.06Q798.17,71.61,733.6,76.25c-5.38.37-10.75.78-16.13,1.09l-16.14.91c-10.77.62-21.5,1-32.06,1.36-21.14.63-41.73.54-61.59-.68a514.24,514.24,0,0,0,60.82,2.66c10.48-.11,21.16-.4,31.9-.94s21.49-1.07,32.25-1.9c43.08-3.16,86.41-8.53,129.76-15.69,69.71-9.15,139.16-21.3,208.5-34.93,0,9.88.18,20.13,6.78,27.91l3.48-.93c2.17-.57,5.15-1.4,8.46-2.32l19.88-5.54c24.35,5.16,36.35,16.26,40.31,29.72s-.15,29.23-7.78,43.59c-2.11,3.08-4.36,6.36-6.78,9.76S1130.26,137.19,1127.48,140.74Z"/></g><g class="cls-2"><path class="cls-3" d="M-177.73,120.43c6.6.37,13.2.74,19.72,1l22.57.51q11.26.21,22.52.25t22.51-.11c7.51-.06,15-.3,22.53-.3,15-.12,30.1-.42,45.22-.82l22.74-.68,22.86-.45,46.16-1,5.82-.13,5.83,0,11.7-.08,23.55-.08,23.78,0c4,0,8,0,12,.12l12,.3q24.13.66,48.84,1.85c11.54.88,23.26,1.78,35.13,2.42s23.89,1.1,36,1.4L302,125q9.15.21,18.34.33,18.38.24,36.86.17c49.2,0,98.37-.78,144.21,0-108.6-6.23-220.33-7.66-331.41-9.15s-221.55-3.1-329-9.86c2.54-1.7,5.15-3.38,7.84-5s5.44-3.12,8.27-4.6A168.35,168.35,0,0,1-125,88.79a149.33,149.33,0,0,1,41.2-9.48l54-.52L-3,78.41l26.71-.1,53.13-.42q26.45,0,52.76-.13c.17,4.92.49,14.54.66,19.38q9.27-1,18.53-1.91c6.16-.52,12.3-1,18.44-1.39q18.43-1.23,36.74-2,9.15-.37,18.29-.62c6.08-.15,12.15-.19,18.22-.23q18.2-.11,36.3.13c24.16.19,48.14,1.28,72.08,2.32l18,.84,9,.44,8.95.52,35.77,2.1c95.35,5.6,190.21,11.48,288.73,2.42-6.89-2.83-2.63-6.67-1.08-9.78l1.4,0-1.4,0c1.4-2.73.67-4.9-11.56-5.29,12.23.39,13,2.56,11.56,5.29-96.69-.7-190.4-2.88-284.38-5.39s-188.24-5.37-286.15-7c9.51-.12,19,0,28.44,0h28.36l28.3-.09,28.2.13,56.25.1,56,.3,14,0,14,.15,27.92.23L447,78.7l27.87.32,55.72.6,55.69.81C660.55,81.62,735,83,809.76,85.08L866,86.68l56.47,1.79,56.71,2c18.8.7,37.35,1.35,55.76,1.9,12.53.37,37.32.88,49.42.88a324.44,324.44,0,0,0,72,13.55,279.1,279.1,0,0,0,67.68-3.17c-1.58,6.51.3,13.92,2.86,21.43s5.75,15.14,6.26,22.19a19,19,0,0,1-1.78,10.07c-1.63,3.09-4.42,5.93-8.83,8.42a41.55,41.55,0,0,1-7.89,3.42,88.21,88.21,0,0,1-10.7,2.55,110.66,110.66,0,0,1-13.81,1.56c-2.57.16-5.29.29-8.14.37s-5.89,0-9.06-.07c.36,4.86,1.09,14.61,1.45,19.47,26.18,4.21,49.05,10.06,67.8,17.17,4.68,1.71,9.1,3.54,13.22,5.49,2.06,1,4,2,5.95,3s3.74,2,5.49,3c7,4.1,12.69,8.64,16.69,13.52a28.7,28.7,0,0,1,6.21,15.61,26.06,26.06,0,0,1-.07,4.14c-.07.69-.17,1.39-.3,2.09q-.09.52-.21,1c-.11.36-.22.71-.34,1.07a32.76,32.76,0,0,1-4.69,8.69,56.17,56.17,0,0,1-8.41,8.89c-.86.75-1.76,1.49-2.71,2.24s-1.9,1.42-2.92,2.13c-2,1.42-4.22,2.83-6.59,4.24s-4.91,2.81-7.62,4.2c-1.37.71-2.75,1.36-4.17,2s-2.89,1.28-4.4,1.92a180.58,180.58,0,0,1-20.14,7.14c-33.21,9.16-69,13.9-105.23,15.61-4.53.21-9.12.43-13.69.58l-13.69.28-6.9.09h-6.87l-13.81-.08c-18.36-.31-36.9-1-55.29-1.93s-36.85-2.05-54.93-3.11-36.42-2.06-54.69-2.87-36.5-1.38-54.66-1.65q-13.62-.21-27.16-.14t-26.91.53c-103.88,1.1-207.18,2.88-310-8.38-35.37-4.31-71.49-6.82-108.07-9-36.52-1.77-73.5-3.27-110.37-4.15-36.93-1.24-73.75-1.78-110.28-3.45-36.44-1.1-72.6-3.41-108-6.26-6.43-.28-13.44-.23-20.85.06s-15.2.71-23.15,1.53c-15.93,1.52-32.62,3.55-48.52,5.22s-31,3.23-43.76,3.51-23.27-.67-30-3.79c-18.92-5.51-20.63-15.66-18.88-27.51,84.37-5.95,168.69-10.49,252.29-11.53,102.64,1.59,205.36,6.66,307.87,17.15-100.23-14.17-203.46-18.43-307.87-17.15-83.49-1.27-167-.34-250.51,2,2.13-10.17,4.14-20.77-1.83-30,0,0-1.62.11-4.25.39l-10.29,1L-177.24,220c-27.09-9.53-38.5-23.1-40.11-37.66s6.6-30.12,18.5-43.59C-192.64,133.17-185.64,126.84-177.73,120.43Z"/></g><g class="cls-2"><path class="cls-4" d="M-88.56,158.71c4.93.8,9.88,1.61,14.77,2.34,90.48,10.68,180.53,2.74,281.23,9.78,35.26,3.85,73,4.38,110.67,3.94s75.46-1.72,110.73-1.61c-83.59-4.6-169.24-4.71-253.95-6.82S6.31,159.9-74,146.7c15.69-11.62,34.65-21.12,57.1-21.94,54.21,2.41,107.77,3.66,161,4.28.13,4.71.39,13.92.52,18.55,37.59-4.56,74.72-5.73,111.61-5.21s73.51,2.66,110.15,4.84,73.26,4.23,110.27,4.67S551,151,589.27,146.33c-5.34-2.65-2-6.36-.79-9.35h0c1.1-2.62.53-4.68-9-5,9.5.28,10.07,2.34,9,5-37.57,0-74.43-.15-111-.5s-72.66-.81-108.77-1.5c-72.22-1.35-144.28-3.38-218.58-5.89,57.64.61,114.86.48,172,.27S436.5,128.76,494,129c114.91.48,231.18,2.89,351.27,13.51,10.22.81,30.72,2.89,41,3.85,39.57,18.06,79.68,27.48,120.41,33.08-6.66,10.86-1.43,29.29-4.55,42.42-1.55,6.57-5.15,11.81-13.26,14.14-4.06,1.21-9.24,1.7-15.88,1.28s-14.7-1.82-24.57-4.14l-2.24,18.55a164.54,164.54,0,0,1,26,13.93q5.79,3.82,10.82,7.88a117.06,117.06,0,0,1,9.26,8.39c11.28,11.39,18.26,23.43,20.34,34.64a33.75,33.75,0,0,1-.57,16,31.86,31.86,0,0,1-8.38,13.62,48.43,48.43,0,0,1-16.49,10.18c-6.91,2.69-15.24,4.57-25.14,5.7-44.29,3.59-94.57-1.93-147.67-7.62-13.25-1.5-26.71-2.81-40.23-4.19s-27.17-2.45-40.81-3.49c-13.68-.87-27.35-1.64-41-1.94s-27.21-.31-40.68.32l-58.68,1q-14.68.29-29.35.37c-9.78.05-19.58.13-29.36,0-39.15-.25-78.3-1.85-117.61-6.61-54.07-7.1-110.86-8.86-167.79-10.7s-114-3.74-169-11.33C39.83,314.42-29.4,331-49.87,317.69c-14.57-6.18-15.51-16.1-13.73-27.27,65.66-.8,131-2.58,195.56-2.43,79.26,3,158.4,7.1,237.06,16.05-38.47-6.24-77.59-10.2-117.16-12.61S172.28,288.11,132,288c-64.48-2.38-129.11-4-193.84-6.59,2-9.62,3.91-19.64-.37-28.72l-29.94,1.12c-40.83-21.85-32-54.92-13-79C-100.26,169.85-94.74,164.29-88.56,158.71Z"/></g><g class="cls-2"><path class="cls-4" d="M1140.17,400.8c-5.47-.44-11-.91-16.4-1.29-50.14-2.12-100,.28-151.45,2.62s-104.53,4.71-160.73,2.27c-4.92-.39-9.87-.66-14.88-1s-10.05-.62-15.12-.85-10.17-.43-15.29-.59l-15.46-.42c-10.36-.3-20.81-.45-31.29-.5-5.24,0-10.51-.12-15.78-.17L688,400.75H672.13l-15.82-.22-15.75-.18c-5.24-.07-10.46,0-15.67-.23l-30.95-.93c-2.55-.09-5.09-.15-7.63-.27l-7.58-.44-15-.92c46.78,5.26,94.3,8.19,141.82,9.41s95.13,1.3,142.38,1.1q17.7-.17,35.37-.18c11.75-.1,23.48-.19,35.2-.19h35l34.8.26c46.24.58,91.86,2.16,136.45,5.88a140.84,140.84,0,0,1-27.85,16.85,108.87,108.87,0,0,1-34,9c-60.18,1.23-119.92,3.14-179.57,4.58-.28-4.7-.83-13.89-1.11-18.52-41.86,6-83.58,8-125.07,7.84-20.82-.36-41.47-.81-62.21-2.14l-15.51-.91-7.75-.47-7.77-.62-31-2.48c-5.15-.36-10.34-1-15.51-1.44l-15.53-1.48-15.52-1.41L570.78,421l-15.58-1.56-7.79-.73c-2.6-.24-5.2-.47-7.81-.78q-15.63-1.73-31.34-3.15l-7.86-.68-7.86-.76-15.72-1.42q-7.83-.7-15.69-1.29t-15.64-1.16c-20.83-1.42-41.63-2.29-62.43-2.21,5.44,3.26,1.49,6.56-.13,9.39l-1.15-.14,1.15.14c-1.43,2.48-1.1,4.59,9.14,6-10.24-1.41-10.57-3.52-9.14-6l61,6.89,15.4,1.74,15.5,1.67c5.13.58,10.39,1.07,15.57,1.61l7.79.81L506,430l31.15,2.81c5.19.54,10.34.82,15.51,1.21l15.48,1.14,15.46,1.18c5.14.35,10.27.6,15.41.91l30.79,1.85c20.46.84,41,2.06,61.41,2.6l15.36.55,7.68.28,7.67.18,30.74.74c5.15.17,10.26.19,15.39.27l15.4.21,15.45.25c5.16.07,10.29.05,15.45.09l31,.19,31.17-.06C811.86,446,747.32,447,682.44,446.1L670.29,446l-12.2-.32-24.37-.6-6.1-.15-6.11-.26-12.22-.52-24.45-1-24.53-1.48L548,440.89l-6.13-.37c-2-.13-4.1-.33-6.15-.49l-24.61-2-12.31-1-12.28-1.19c-16.39-1.6-32.49-3.43-48.49-5.29l-23.76-2.88-23.48-2.93c-31.16-3.92-61.44-7.73-91.13-10.82s-58.66-5.37-87.23-6.5c-3.58-.19-7.12-.23-10.68-.32l-10.67-.26-10.71-.07-5.36-.05-5.37.06-10.75.1c-3.59.05-7.19.2-10.78.28-7.19.13-14.39.52-21.6.82-2.46.08-5.52.29-8.9.5l-10.74.67c-7.34.61-14.71,1.14-19.59,1.63-40.42-10.32-81.2-8.49-118.91.81.95-6.25-1.35-13.21-4.22-20.24s-6.29-14.16-7.29-20.83a19.15,19.15,0,0,1,.74-9.62,18.13,18.13,0,0,1,6.83-8.52c7.12-5.11,19.93-9.35,41.37-10.74-.82-4.6-2.45-13.8-3.26-18.4-2.81-.23-5.58-.52-8.31-.84s-5.42-.71-8-1.06q-7.92-1.09-15.31-2.71a191.1,191.1,0,0,1-27-7.55,121.2,121.2,0,0,1-11.52-4.84,99.36,99.36,0,0,1-10-5.4,56.92,56.92,0,0,1-14.73-12.69,30.77,30.77,0,0,1-6.27-14.76,24.93,24.93,0,0,1,.22-7.93,30.7,30.7,0,0,1,3.09-8.23,45.27,45.27,0,0,1,6-8.42c1.25-1.42,2.62-2.84,4.13-4.26s3.15-2.77,4.92-4.15A112.91,112.91,0,0,1-68,232.18a167,167,0,0,1,15.64-7.67c6.55-2.65,13.28-5,20.19-7.31s14-4.25,21.22-6.22c7.22-1.8,14.6-3.58,22.11-5.13q5.63-1.12,11.35-2.18c3.82-.71,7.66-1.39,11.53-2,31-4.89,63.68-7.27,97.11-7.92,4.17-.11,8.37-.09,12.57-.13s8.41-.07,12.63,0l12.69.17,6.36.08,6.37.2,12.77.39c4.26.13,8.53.38,12.8.55s8.57.35,12.8.61l12.74.73c33.94,1.95,67,4.74,98.76,6.16,46.09,3.16,90.41,7.46,132.48,12.32,10.52,1.2,21,2.49,31.22,3.77l30.6,4q15.22,2,30.44,4.45c10.2,1.47,20.43,3,30.65,4.9,3.52.65,7,1.36,10.59,1.92l10.72,1.62q10.75,1.57,21.65,3c1.82.23,3.63.48,5.46.68l5.49.56,11,1.08q11.06,1.05,22.2,2l22.46,1.37,11.27.63,5.65.31,5.67.21,22.75.78,11.39.39,11.45.21c61,1.36,122.66,1.2,182.65,5.94,10.85.4,23.71-.75,37.16-2.29s27.61-3.71,41.08-5.5,26.33-3.31,37.25-3.6,19.9.61,25.69,3.55c16.28,5.16,17.88,15,16.57,26.27-35.93,2.73-71.67,5.5-107.26,8l-26.63,1.75-13.3.85-13.27.74-26.49,1.41-26.39,1-16.19.05-16.17-.12-16.16-.14-8.07-.09-8.06-.19L795,283.54l-32.11-1.45c-42.75-2.3-85.24-6-127.16-11.93,40.94,7.65,83.11,12.08,125.92,14.3q16.08.72,32.24,1.22c10.8.22,21.63.3,32.48.36s21.75-.13,32.66-.3l16.4-.33c5.47-.14,11-.36,16.44-.55l26.36-.15,26.41-.42c17.6-.22,35.27-.76,52.92-1.13l106.27-3c-1.65,9.75-3.17,19.89,2,28.65l32.77-3.23c46.06,18.87,38.42,52.52,18.86,78C1152.39,388.83,1146.64,394.78,1140.17,400.8Z"/></g><g class="cls-2"><path class="cls-5" d="M-108.85,289.77l7.8,2.35c1.29.4,2.6.75,3.93,1.08l4,1c6.11,1.34,12.24,2.65,18.41,3.84Q-65.4,299.57-56,301l4.71.68c1.58.21,3.18.36,4.77.54l9.57,1,9.59.93c3.2.32,6.46.46,9.69.68,6.49.38,13,.78,19.51,1.05l19.77.46,5,.09h5l10-.05,10.06-.07c3.37,0,6.77-.16,10.15-.24,27.09-.56,54.88-2.08,83.46-3.51,14.27-.7,28.83-1.48,43.54-2.09s29.76-1.18,45.06-1.54c10.7.1,21.7,0,32.76-.32s22.38-.74,33.7-1.37,22.76-1.27,34.22-2.06,23-1.65,34.46-2.52c46-3.55,92-7.65,134.94-9.89-51.06.5-102.76,2.48-154.63,5.3-25.94,1.35-51.92,3-77.91,4.65s-51.64,3.41-77.07,4.83-50.69,2.56-75.55,3c-12.48.31-24.79.27-37.09.24-6.14,0-12.22-.21-18.31-.34l-9.12-.24c-3-.08-6-.26-9-.4l-18-.94c-6-.42-11.86-.92-17.77-1.42L.64,296.6l-8.73-1q-8.71-1-17.34-2.12-8.55-1.32-17-2.71c-2.81-.48-5.64-.92-8.43-1.44l-8.29-1.69c-5.51-1.16-11-2.27-16.43-3.54s-10.69-2.76-16-4.18c4.58-2.41,9.31-4.67,14.19-6.67,1.22-.5,2.45-1,3.69-1.45s2.52-1,3.8-1.46c2.56-.94,5.15-1.8,7.79-2.57s5.31-1.46,8-2c1.36-.28,2.73-.55,4.11-.78s2.81-.52,4.23-.74A100.45,100.45,0,0,1-28.06,263c29.48,2.47,59.7,3.36,90.32,3.19s61.66-1.41,93.05-3.29c.44,4.7,1.29,13.87,1.72,18.48a1283.56,1283.56,0,0,1,134.24-15.67c45.19-3,90.12-3.89,135-4.5s89.69-1,134.81-2.85,90.54-5.23,136.81-11.84c-6.64-2.37-2.8-6.25-1.47-9.3l1.31,0-1.31,0c1.19-2.67.4-4.71-11.17-4.5,11.57-.21,12.36,1.83,11.17,4.5-91.35,3.82-179.63,7.51-268,11.6-44.17,2-88.36,4.2-132.94,6.62-44.74,2.42-89,5.14-133,7,34.09-2.1,68.55-4.87,103.54-7.65s70.16-5.42,105.13-7.91c69.95-5,139.71-9.19,209.76-12.47s140.41-5.38,211.34-6.05c35.35-.35,70.46-.38,105.12-.56s68.87-.55,102.6-1.7l22.9-.92,22.7-1.25a306.63,306.63,0,0,0,61,8.3c2.52.09,5,.16,7.57.21s5.05.09,7.56,0q7.53-.15,15-.52c2.52-.14,5-.24,7.54-.46l7.74-.75q7.73-.79,15.43-1.79l-.54.08-.25,0h0l.16,0,.32-.05.65-.09,1.29-.19,2-.26,3.63-.42,5.15-.5,8.26-.82c-3.57,9.63,2.19,21.92,4.8,33.31,1.3,5.69,1.83,11.16-.08,16a16.45,16.45,0,0,1-5,6.66,25.42,25.42,0,0,1-4.42,2.88c-.45.23-.9.45-1.41.68l-1.7.69-1.81.7-.47.18-.56.19-.57.2-.29.09-.15.05-.07,0,.21,0c-8.84,3.64-22.64,6.56-42.9,7.07.58,4.63,1.76,13.91,2.35,18.54q6.36.67,12.44,1.62c2,.31,4,.65,6,1l5.84,1a206.65,206.65,0,0,1,21.59,5.17c1.86.59,3.57,1.28,5.36,2s3.61,1.46,5.36,2.22c3.52,1.52,6.9,3.12,10.11,4.76,6.45,3.29,12.2,6.77,17.65,10.25l4.1,2.59,2.07,1.27,2,1.27c2.58,1.68,4.93,3.36,7,5,.51.41,1,.81,1.47,1.21a5.54,5.54,0,0,1,1.14,1.13.64.64,0,0,1,.08.3v.16c0,.05.09.11.12.17l.51.72c.33.48.65,1,.95,1.45a29.83,29.83,0,0,1,2.86,6,25,25,0,0,1,1,12.59c0,.27-.11.54-.15.81a1.38,1.38,0,0,1,.16.87,7,7,0,0,1-.73,1.85,24.36,24.36,0,0,1-2.41,3.64,35.7,35.7,0,0,1-3.28,3.59,38.68,38.68,0,0,1-4.24,3.54c-3.14,2.34-6.11,4.49-9.25,6.56s-6.38,4-9.85,5.87-7.16,3.64-10.92,5.32c-1.87.83-3.79,1.65-5.45,2.41-.41.2-.8.38-1.12.57a.76.76,0,0,0-.21.13.3.3,0,0,0-.06.11l-.09.22-.19.45-.05.11.29.06.3.06.16,0h.11l-1,.16c-2.17,1-4.85,1.95-7.66,2.93q-5.17,1.68-10.48,3.27c-3.57,1.05-7,2.14-10.87,3.06q-11.3,2.84-23.1,5.36c-7.85,1.58-15.86,3-24,4.31-4.07.69-8.17,1.26-12.29,1.8s-8.29,1.07-12.47,1.57c-33.47,3.92-68.48,5.43-103.62,5.77s-70.44-.41-105.08-.64-68.68.09-101.56,2.46c-95.54,4.72-190.4,12-286.08,7.89-65.87-3.37-134.57-.76-203.19,2.83C261,454.58,226,456.6,190.84,457.54s-70.56.81-105.56-1.65C59.91,455.2,25,459.1-7.5,460.47c-4.07.16-8.08.31-12,.41s-7.79.21-11.6.13c-7.58-.09-14.75-.35-21.29-.86-3.26-.21-6.41-.64-9.37-1.09s-5.72-1-8.27-1.59a44.84,44.84,0,0,1-12.54-4.64,44,44,0,0,1-6.11-3.07,32,32,0,0,1-4.53-3.3,17.63,17.63,0,0,1-5-7c-1.81-4.87-.85-10.07,1-15.49,42.13,4.08,83.95,4.94,125.12,4.24s81.73-3,121.68-5.51c49.11-1.69,97.74-4.15,145.62-5.34s95.82-1.26,143.72.28c-47-3.37-94.54-4-142.5-2.73s-97,4.68-146.84,7.79c-40,1.35-80.29,2.27-120.95,1.44S-53.06,420.77-94,415.21c3.73-9.28,7.18-19,3-28.57l-13.83-1.07-3-.23-3-.32-6.11-.68-10.93-1.21a81.66,81.66,0,0,1-7.92-5.44,78.59,78.59,0,0,1-6.42-5.67,51.9,51.9,0,0,1-8.77-11.22,32,32,0,0,1-4-21.55c2.35-13.82,13.16-26.42,25.55-36.39l4.75-3,5-3.29C-116.17,294.34-112.58,292-108.85,289.77Z"/></g><g class="cls-2"><path class="cls-5" d="M957.48,534.74c-5.33-.84-10.66-1.69-16-2.46-24.42-2.83-48.82-4.5-73.36-5.51q-18.4-.75-36.95-1.08l-18.62-.28-19.35-.24c-13.26-.19-27.33-.55-42.18-1.66-7.4-.54-15.19-1.33-22.63-2.31s-14.74-2.15-21.78-3.41c-14.07-2.54-27.19-5.46-39.44-8.18-6.12-1.35-12-2.67-18.15-4l-18.56-3.92c-35-8.73-74.61-12.46-115-14.91s-80.68-3.54-118.3-5.51c44.48,4.46,89.55,8.45,134.73,12.67s89,8.83,130.13,17.24c10.35,2.11,21.4,4.59,33.3,7.08s24.59,4.93,38,6.89c6.76,1,13.61,1.8,20.19,2.49s13.08,1.25,19.4,1.75c12.63,1,24.68,1.71,36.1,2.5,5.7.4,11.25.81,16.85,1.25l16.72,1.41q16.7,1.49,33.26,3.29,33.14,3.63,65.63,8.77c-17.12,11.5-37.7,20.87-61.94,21.53q-21.92-1-43.69-1.83l-21.75-.74-22.94-.7c-8-.27-16.3-.59-25-1.09s-17.68-1.14-27-2.1-18.61-2.19-27.21-3.56-16.76-2.84-24.41-4.3c.72-4.65,2.14-13.75,2.86-18.33-5.44-.41-10.68-.87-15.7-1.33l-14.35-1.39-27.06-2.67q-27.29-2.71-55.52-5.79t-57.41-6.51l-58.15-7Q433.2,507.42,404,504.6c-19.46-1.78-39-3.32-58.6-4.22-39.26-1.89-79-1.54-119.44,2.77,5.63,2.71,2.09,6.39.79,9.36l-1.14,0,1.14,0c-1.18,2.61-.6,4.68,9.41,5.06-10-.38-10.59-2.45-9.41-5.06,39.61.37,78.57,1.46,117.16,3.23s76.84,4.17,115,7.19q28.65,2.25,57.29,5c19.15,1.79,38.06,3.71,56.52,5.92s36.58,4.72,54.17,7.74q13.2,2.25,26,4.93c8.4,1.74,17.59,3.84,27.8,6l-22.16-4.32c-3.39-.65-6.71-1.24-10-1.83s-6.72-1.15-10.12-1.69q-20.42-3.23-41.84-5.54c-28.49-3.14-58.29-5.33-88.69-7.36-60.51-4-120.91-7-181.53-9.19-121.25-4.39-243.34-6-369.11-8.13l-42.89-.63c-10.68-3.64-21.38-6.69-32.09-9.23l-2-.47-.5-.11c-.18,0-.23-.08-.35-.11l-.63-.21-2.52-.83-.63-.2c-.2-.07-.46-.14-.57-.19l-.85-.35-.85-.35-.43-.18a1.36,1.36,0,0,1-.34-.16l-.83-.64c-.28-.22-.56-.36-.86-.56s-.59-.3-.89-.48l-.24-.12c-.11,0-.26,0-.39-.06l-.82-.13-.41-.06-.93,0-1.86.13-.93.06-1.22.13-2.51.26-5.35.58c-1.86.19-3.71.41-5.57.56l-5.55.51c-1.86.18-3.57.27-5.36.41l-5.29.4-5,.28-5,.31-4.78.23-9.43.49-9.09.44-8.92.46c2.61-6,1.45-13.23-.23-20.68s-3.85-15.08-3.5-21.83a18.57,18.57,0,0,1,2.78-9.3,20.55,20.55,0,0,1,8.78-7.25,43.64,43.64,0,0,1,7.36-2.64,78.67,78.67,0,0,1,9.81-2c1.86-.29,3.86-.58,6-.82l6.76-.7,16.22-1.45c-.88-4.58-2.63-13.77-3.51-18.36a117.72,117.72,0,0,1-31.18-6.49q-3.48-1.23-6.74-2.56c-2.19-.92-4.31-1.89-6.35-2.88a106.94,106.94,0,0,1-11.43-6.35,99.4,99.4,0,0,1-9.71-7,79.22,79.22,0,0,1-8-7.53,52.49,52.49,0,0,1-10.28-15.78,31.29,31.29,0,0,1-2.4-15.86,29,29,0,0,1,2.07-7.62,33.16,33.16,0,0,1,4.15-7.28,42.67,42.67,0,0,1,6.37-6.77c1.26-1.09,2.6-2.14,4.05-3.17s2.91-2.06,4.51-3.05,3.29-1.94,5.07-2.87,3.72-1.8,5.57-2.7,3.88-1.73,6-2.55l6.28-2.38c2.36-.79,4.9-1.52,7-2.3l3.31-1.1c.57-.18,1.06-.36,1.54-.55l1.45-.54,1.46-.52.73-.25.65-.27c.85-.35,1.71-.69,2.57-1s1.71-.71,2.57-1l1.59-.58,1.69-.59,2.55-.78,1.31-.39.66-.19,1-.26c2.8-.69,5.35-1.36,8.65-2l4.73-.93,4.78-.78c3.2-.53,6.42-.9,9.67-1.25l2.44-.26,1.22-.12,1.08-.09,4.24-.31,4.25-.28c.76-.05,1.28-.06,1.92-.09l1.83-.08,7.29-.25,5.22-.14c28-.71,57.28,0,87.27,1.11,60,2.23,122.58,6.13,182.69,3.38,43.7-.92,87.43-1.66,131.08-.39s87.21,4.52,130.54,11.47c29.78,5.1,60.27,9.13,91.12,12.82,15.45,1.85,30.85,3.55,46.64,5.33s31.83,3.59,48.13,5.69,32.81,4.48,49.48,7.35c8.35,1.45,16.72,3,25.13,4.75,4.2.85,8.43,1.76,12.45,2.68s7.93,1.83,11.74,2.75c7.53,1.83,14.55,3.63,21.13,5.32L743,366.83l4.27,1.05,4.18,1c2.76.67,5.67,1.29,8.61,1.91q8.91,1.84,18.79,3.54c9.55,1.15,21.63.84,35.24,0s27.68-2.07,41.18-3c27-1.9,51.34-2.57,62.35,4.14,15.72,6.29,16.61,16.21,14.53,27.37-35.56.15-71.07.58-106.45,1l-26.35.25c-8.59,0-16.92,0-25-.19s-15.83-.62-23.27-1.31c-3.71-.33-7.39-.77-11.15-1.25s-7.58-1.07-11.47-1.71c-9.52-1.9-19.42-4.16-30-6.56q-7.9-1.8-16.23-3.63l-8.4-1.77q-4.23-.89-8.43-1.71c-22.44-4.47-44.72-8.21-66.73-11.65s-43.79-6.63-65.24-9.9-42.9-6.66-64.35-10.18q31.38,6.57,63.21,12c21.21,3.62,42.85,6.92,64.85,10.3s44.38,6.85,67.07,10.92c5.65,1,11.39,2.09,17.05,3.17l16.53,3.28c10.73,2.15,20.89,4.15,30.62,5.74,3.86.78,7.65,1.48,11.4,2.14s7.39,1.21,11.08,1.7c7.41,1,15.16,1.73,23.17,2.29s16.32,1,24.84,1.26l26.11.89c35,1.17,70.07,2.43,105.1,4-2.3,9.6-4.48,19.62,0,28.72l12.16-.33c6.72-.2,15-.37,20-.6,10.58,5.32,18,10.78,25.7,15.25l2.92,1.61,3,1.44a32.49,32.49,0,0,0,3,1.3c1,.41,2,.83,3,1.25,4.08,1.41,7.65,3,9.92,5.66s3.29,6.46,2.08,11.53c-.18.66-.29,1.23-.43,1.83s-.32,1.21-.53,1.83a28.93,28.93,0,0,1-1.63,3.89c-.38.7-.58,1.25-.91,1.89s-.64,1.25-1,1.88-.75,1.28-1.17,1.92l-.66,1c-.18.3-.36.6-.55.9a43.48,43.48,0,0,1-2.57,3.63c-.23.3-.5.62-.71.91l-.64.85c-.43.57-.88,1.14-1.36,1.71s-1,1.15-1.48,1.72-.93,1.08-1.41,1.63c-.93,1.06-2,2.16-3,3.2a149.84,149.84,0,0,1-12.17,11.31l-12.54,8.59-6.12,4.23A70,70,0,0,0,957.48,534.74Z"/></g><g class="cls-2"><path class="cls-6" d="M-37.71,412.13c4.74,1.29,9.59,2.46,14.37,3.6,44.66,8.77,92.12,9.44,141.46,8.2s100.14-4.55,154.51-5.41c76.42,1.64,163-13.31,240.25-20.34-91.91,4.09-184.62,14.15-275.5,18.54-11.35.51-22.7,1-34,1.34l-16.92.46-16.85.24q-8.41.11-16.78.06c-5.59,0-11.16-.06-16.73-.13-11.1-.25-22.19-.46-33.18-1-44.08-1.91-86.6-6.64-125.36-16.26C-6.17,391,12.57,382.48,35,382.1q20.32,1.29,41.16,1.74l10.44.2,10.5.09c7,.05,14,.12,21,0,28-.13,56-1,84.14-2.48.42,4.7,1.23,13.87,1.64,18.49C283.13,386.11,362,382.6,442.2,379c40.06-1.78,80.41-3.65,121.2-6.78s82.06-7.65,124.47-14.86c-6.13-2.27-2.67-6.2-1.5-9.27l1.21-.07-1.21.07c1.06-2.69.3-4.71-10.36-4.33,10.66-.38,11.42,1.64,10.36,4.33-42,2.5-83,5.52-123.37,8.7s-80.07,6.57-119.41,9.78c-78.72,6.43-156.23,12.2-234.91,14.77,60.94-3.3,122.09-9.11,183.88-15.38l93.25-9.53c31.34-3.12,62.87-6.12,94.71-8.68,63.65-5.12,128.43-8.74,194.85-8.63,33.21.07,66.83,1.07,100.86,3.42l25.6,2c8.54.75,17.06,1.6,25.37,2.49s16.55,1.82,24.62,2.76l23.87,2.84,21,2.45c7.75.86,15.38,1.68,20.37,2.17a254.67,254.67,0,0,0,28.76,11.3,216.59,216.59,0,0,0,28.39,7.1,193.82,193.82,0,0,0,54.25,2.23c-1.53,6-.31,13.24,1.46,20.62s4.1,14.92,4.23,21.66a19.49,19.49,0,0,1-1.89,9.39,17.35,17.35,0,0,1-7.64,7.41,30.6,30.6,0,0,1-6.7,2.61c-1.3.36-2.7.68-4.19,1s-3.1.48-4.8.67a116.54,116.54,0,0,1-25.78-.59l-.12,18.69c21.55,6,40.39,13.36,55.94,21.49a143.4,143.4,0,0,1,20.53,12.82c5.84,4.48,10.6,9.11,13.91,14a31,31,0,0,1,4.79,15.31,25.79,25.79,0,0,1-.18,3.92c-.07.66-.17,1.31-.3,2-.07.32-.13.65-.21,1s-.22.66-.34,1a30.64,30.64,0,0,1-4.47,8,44.25,44.25,0,0,1-3.47,4,52.91,52.91,0,0,1-4.28,3.85c-1.57,1.28-3.29,2.55-5.15,3.79s-3.84,2.41-6,3.58a129.46,129.46,0,0,1-32.57,11.87c-29.53,6.32-60.76,8-92.3,6.79-7.88-.32-15.76-.77-23.53-1.4s-15.56-1.37-23.3-2.2c-15.38-1.69-30.62-3.74-45.41-5.82l-22-3.08c-7.2-1-14.39-2-21.42-2.85l-10.51-1.27L872.31,555l-10.51-1c-3.51-.33-7.06-.55-10.59-.82a581,581,0,0,0-85.09-.47c-41,2.07-82.25,5.48-123.94,8.37s-83.79,5-126.73,4.39C456.32,564,394,568.68,330.66,572.5s-127.68,6.61-190,1.3c-5.66-.22-11.82-.13-18.32.19s-13.38.74-20.41,1.34c-14.06,1.19-29,2.68-43.3,3.7-28.63,2.08-55.21,1.9-66.82-5.37-8.38-3.55-12.62-7.84-14.41-12.63s-1.11-10,.34-15.52C-3.43,546.57,15.31,547,33.9,547s37.05-.31,55.33-.86c36.53-1.13,72.76-3,108.66-5,88.3-2.17,175.91-6.81,262.47-6.41-42.51-2.06-85.75-1.71-129.52-.21s-88.12,4.11-132.95,6.62c-35.91.89-71.95,1.31-108.08.89s-72.75-1.82-109.47-5.46c3-9.43,5.75-19.32,1.66-28.67l-3.63-.12c-2.24-.09-5.35-.17-8.81-.34-6.91-.29-15.2-.77-20.73-1.15a75.41,75.41,0,0,1-13.31-10.22,47.56,47.56,0,0,1-8.33-10.63,34.71,34.71,0,0,1-4.47-21.3,49.84,49.84,0,0,1,7.3-20.1,82.94,82.94,0,0,1,6.51-9.23,105.57,105.57,0,0,1,7.71-8.53l8.6-6.87C-44.16,417.11-41,414.61-37.71,412.13Z"/></g><g class="cls-7"><path class="cls-6" d="M1186.11,599c-6.34-.16-12.69-.33-19-.43-57.9.5-115.36,5.3-174.6,10s-120.29,9.25-184.93,9.1c-45.33-1.53-93.63-.13-142,1.37l-36.23,1.13-35.95,1-35.55.36-17.45.1-17.14-.3c6.71.38,13.42.85,20.17,1.14l20.29.74,20.35.68,10.2.31,10.16.15q40.65.68,81.56.18c54.51-.6,109.16-2.5,163.47-4.67,108.64-4.34,215.92-9.81,319.06-7a171.17,171.17,0,0,1-31.89,18.28,146.36,146.36,0,0,1-18.6,6.64,138.25,138.25,0,0,1-20.52,4.1L993.9,648.3l-51.57,3.18-25.72,1.59-25.7,1.48c-.42-4.69-1.23-13.86-1.64-18.48-48,7.76-95.8,11.5-143.33,12.87l-17.82.41c-5.93.12-11.86.22-17.8.2-11.86,0-23.7,0-35.53-.11l-35.48-.74c-11.81-.31-23.63-.79-35.43-1.17l-8.85-.3c-3-.1-5.94-.28-8.91-.41L568.28,646l-17.83-.76-8.92-.36-8.89-.48q-17.77-1-35.59-1.69l-8.91-.34-8.89-.45q-8.88-.42-17.8-.76t-17.84-.58l-8.94-.23-8.92-.28q-17.85-.52-35.84-.56l-18,0q-9,0-18.05.19c-12.06.22-24.21.7-36.34,1.19,6.67,3,2.33,6.5.69,9.41l-1.37-.09,1.37.09c-1.48,2.54-.84,4.65,11.18,5.55-12-.9-12.66-3-11.18-5.55l71.09,3.38,35.36,1.53,8.81.41,8.83.31,17.64.62,17.61.66,8.79.35,8.82.23,35.23.94,8.79.26c2.93.09,5.88.09,8.82.13l17.65.24,17.65.28,8.82.15c2.94.06,5.83,0,8.75,0l35,.16,35-.11c5.84,0,11.67-.08,17.51-.14l17.54-.17c11.71,0,23.4-.32,35.14-.5,46.92-.81,94.16-2.14,142-4l-27.83,1.52-13.89.79-13.9.69-27.75,1.42L772,660.7l-13.86.64-13.88.52-27.71,1.07-27.72.86c-4.62.14-9.23.32-13.85.43l-13.86.31-27.71.63-27.72.39c-4.62.05-9.21.17-13.87.18h-14l-28,0c-9.34.09-18.6-.16-27.88-.29L494.1,665l-7-.11-6.93-.22-13.86-.43-27.75-.85c-147.77-5.36-293.23-19-440-31.76l-25-2.18-24.93-2q-9.12-3.37-18.3-6.31c-6.12-2-12.26-3.81-18.37-5.43q-18.36-4.94-36.88-8.43c-6.18-1.2-12.32-2.13-18.49-3s-12.34-1.69-18.52-2.39-12.37-1.32-18.56-1.84-12.34-.8-18.52-1.09c6.76-11.38-1.7-29.32.48-42.67,1.1-6.67,4.9-12.2,14.71-15.17a48.31,48.31,0,0,1,8.54-1.72,93.15,93.15,0,0,1,11.09-.49,221.18,221.18,0,0,1,31,2.9c.3-4.65.91-14,1.21-18.65a262.23,262.23,0,0,1-34.25-12.64,205.75,205.75,0,0,1-27.45-14.88c-15.86-10.47-26.62-21.94-31-33a27.05,27.05,0,0,1-1.61-16c1.13-5.12,4-9.95,8.88-14.29s11.62-8.21,20.49-11.42A126.44,126.44,0,0,1-182,416.61a167.22,167.22,0,0,1,18.08-3.1c59.09-6.18,127-.85,197,6.54s142.44,16.81,211.57,18.09c50.18,2,100,3.44,149.3,5.92,49.27,2.23,98.06,5.4,146.66,10.77,16.68,1.85,33.55,3.27,50.61,4.57,8.6.51,17.27.93,26,1.33l13.06.56,13.11.35,26.35.55,26.48.11h13.28l13.3-.14,26.65-.3,106.61-2.11c35.42-.63,70.6-.71,105.3.24,25.13-.26,59.15-6.54,90.17-11.42,15.52-2.49,30.3-4.6,42.87-5.43s23-.43,29.65,2.25c18.82,4.35,20.84,14.08,19.52,25.46-41.32,4.53-82.49,9.14-123.49,13.31S938.31,492,897.71,494.74c-49.92,2-99.76,3.09-149.48,2.61s-99.29-2.53-148.62-6.61a1300.83,1300.83,0,0,0,147.26,9c49.78.39,100.14-1.57,150.84-5,40.6-1.66,81.28-3.91,122-6.45s81.56-5.44,122.45-8.22c-1.74,9.85-3.32,20.09,2.82,28.59l37.71-5c53.4,16.43,45.26,50.53,23.12,77.06C1200,586.33,1193.5,592.62,1186.11,599Z"/></g><g class="cls-2"><path class="cls-6" d="M638.58,399.16c3,.67,6,1.35,9,2,54.58,8.32,107.36-1.92,167.59,1.58,42.41,5.24,89.46-3.76,131.16-7.21-99.57-.41-202.58,13.56-300-8.66,8.35-12,18.8-21.93,32.06-23.32,32.36,1,64.23.73,95.81-.34.47,4.69,1.39,13.86,1.85,18.47,43.81-11.44,87.58-9.77,131.23-8.9,21.83.41,43.66.67,65.51-1.08a305.15,305.15,0,0,0,32.87-4.26,262.44,262.44,0,0,0,33.31-8.46c-3.4-2.28-1.73-6.2-1.25-9.26l.64-.07-.64.07c.43-2.69-.07-4.71-5.76-4.33,5.69-.38,6.19,1.64,5.76,4.33q-16.82,1.95-33.2,3.6c-10.93,1.1-21.73,2.12-32.52,3-21.56,1.8-43,3.13-64.35,4.17-42.79,2-85.6,2.74-129.85,2.6,68.42-2.46,135.47-8.76,203.26-15.19,33.8-3.22,68.28-6.54,103.91-8.91,17.81-1.18,35.89-2.11,54.27-2.64s37.12-.63,56-.16c6.42.12,19.3.58,25.73.87,25.11,15.14,49.91,21.63,75.26,24.26-4.33,11.29-1.42,29.22-3.62,42.49-1.08,6.64-3.38,12.12-8.34,15.09s-12.58,3.39-24.47.11c-.36,4.65-1.09,14-1.45,18.63a79.49,79.49,0,0,1,27,26.57,74.29,74.29,0,0,1,11,32.87,55.78,55.78,0,0,1-.81,15.94,47.22,47.22,0,0,1-2.13,7.36,43,43,0,0,1-3.18,6.8c-5,8.62-12.92,15.37-24.14,19-25.12,7-53.17,5.3-82.91,3.59-29.57-1.73-61.36-3.33-92,2.83-22.34,3.41-44.89,7.21-67.93,9.48s-46.44,2.94-70.08.24c-32.6-4.3-66.38-3.59-100.27-3.29s-67.93.2-101.18-5.77c-24-2.24-63.69,16-77,3.34-9.16-5.79-10.54-15.64-10.42-26.81,38.91-2.46,77.54-6,115.84-7.81,47.25.48,94.5,1.77,141.81,7-46.61-8.79-94-9.23-141.81-7-38.44-.41-76.93-.27-115.56-1.22.39-9.64.68-19.67-2.61-28.6L644.33,494c-26.05-20.74-23.59-53.9-14.27-78.38C632.56,410.55,635.38,404.87,638.58,399.16Z"/></g><g class="cls-8"><path class="cls-5" d="M899.91,252.39c-3-1.28-6.09-2.57-8.84-3.88s-5.71-2.58-8.25-3.84c-12.38-5.3-22.94-10.13-32.06-14.11s-16.84-7.17-23.49-9.49c-1.62-.53-3.27-1.13-4.89-1.62s-3.31-1-5.09-1.42c-3.55-.89-7.42-1.67-11.58-2.36-8.32-1.37-17.72-2.34-28-3.15-5.14-.41-10.59-.78-16.1-1.15L745,210.27c-11.07-.73-22.24-1.5-33.52-2.37-22.57-1.75-45.59-4-69.22-7.38-66.19-13.86-141.95-5.56-209-4.51,39.74,2.61,79.79,4,119.77,5.64s79.89,3.48,119.69,6.72c19.88,1.62,39.71,3.59,59.43,6,9.86,1.23,19.69,2.56,29.49,4,4.91.74,9.79,1.51,14.41,2.32s9,1.69,13.28,2.63a155.61,155.61,0,0,1,22.42,6.51,72.63,72.63,0,0,1,8.7,4c1.3.69,2.63,1.47,3.92,2.2l4.16,2.39c5.78,3.34,12.49,7.3,20.6,11.88s17.6,9.77,28.77,15.23q-2.09,1.14-4.23,2.21l-4.22,2.11q-4.1,2.06-8.35,3.83c-2.63,1.22-5.3,2.33-8,3.32l-1,.36-.94.38-1.88.7c-1.25.46-2.51.89-3.77,1.28-9.81,3.19-18,4.72-23.75,3.64l-4.48-2c-1.26-.57-2.54-1.19-3.76-1.71a66.36,66.36,0,0,0-9.65-3.07,233,233,0,0,0-29.14-4.82c-5.79-.67-12.2-1.29-18.39-1.89s-12.44-1.16-18.66-1.69q-18.63-1.61-37.21-2.84c0-7,.08-20.81.1-27.74-35.3,5.11-70,5.63-104.37,4.16s-68.69-4.93-103.26-7.87-69.31-5.43-104.49-5-70.83,3.87-107.4,12.63c5.2,3.72,2.13,9.42,1.05,13.93l-1,0,1,0c-1,4-.37,7,8.76,7-9.13,0-9.73-3.05-8.76-7,72.14-3.46,140.85-4.77,208.84-3.29,34,.72,67.67,2.17,101.47,4.29s67.85,5,102.4,8.5q-40.25-2.58-80.2-3.61c-13.34-.36-26.62-.62-40-.74l-20-.15h-20c-53.42.16-107.33,1.65-162,3.2-109.34,3-221.81,6.52-340.85-1.26-10.18-.68-30.65-2.19-41-3.13-39.44-24.44-79.51-36.07-121.37-43,4-8.17,5.12-19.06,5.83-30.34s1-23,3.32-32.76,6.45-17.71,14.72-21.62a27,27,0,0,1,7-2.12,40.77,40.77,0,0,1,8.78-.47A75.26,75.26,0,0,1-80,130.44a132.42,132.42,0,0,1,13,3.4c.89-6.92,2.65-20.79,3.54-27.71a122,122,0,0,1-41.51-42.32c-9.46-16.28-14.29-33.88-14.59-50.33a77.34,77.34,0,0,1,2.74-23.71A70.27,70.27,0,0,1-112.72-21a66,66,0,0,1,5.56-9.8,61.14,61.14,0,0,1,16-15.95,70.76,70.76,0,0,1,22.85-10c19.76-4.12,40.61-5,62.79-4.33s45.58,3,70,5.4c12.19,1.18,24.61,2.42,37.22,3.43,6.3.51,12.59,1.05,18.94,1.47s12.73.74,19.1,1c3.19.14,6.37.28,9.56.36s6.41.13,9.61.17q9.6.09,19.17-.11t19.17-1c6.37-.45,12.71-1,19.05-1.86,73.59-6,148.13-14.06,224.51-1.29C467-48.6,494-45.55,521.42-43.22s55.3,4,83.22,6c55.8,4,111.59,9.36,164.65,23.93,9.69,1.86,21.93,2,36.22,1.87s30.65-.35,47.89,1.07c4.25.36,8.45.81,12.5,1.3l5.81.82c1.91.29,3.84.58,5.57.91a142.31,142.31,0,0,1,18.83,4.54q2,.64,3.84,1.35l1.83.72,1.64.73a45.66,45.66,0,0,1,5.92,3.22,21.87,21.87,0,0,1,7.52,8A31.77,31.77,0,0,1,920.11,16a28,28,0,0,1,2,5,34.77,34.77,0,0,1,1.3,10.45c-.22,7.16-2.2,14.78-4.88,22.69l-21.93-5.94c-7.8-2.1-16.35-4.27-25.34-6.28-4.45-1-9.2-1.94-13.89-2.87-4.85-.85-9.69-1.71-14.61-2.41-9.7-1.38-19.1-2.37-28.11-3.09-18.07-1.47-34.71-2-50.25-2.76s-31.32-1.45-46.93-2.29c-38.27-4.13-76.59-8.23-115-12.84S525.71,5.88,487.58-.46c37.34,9,75.36,15.12,113.76,19.56s77.12,7.22,116.1,9.35l46.67,5.08c15.41,1.73,31.85,3.4,49.42,6,8.77,1.28,17.83,2.8,27.13,4.72,2.32.48,4.69,1,7,1.52l7,1.67c2.32.56,4.5,1.19,6.75,1.78l3.35.91,3.24.95c2.13.65,4.35,1.27,6.4,1.93l6.21,2c4,1.33,8,2.68,11.77,4,7.62,2.67,14.81,5.34,21.49,7.78-5.13,13.46-10.54,27.48-10,41.75l3,.67,7.2,1.53c2.81.55,5.91,1.21,8.83,1.7l4.24.75,3.69.57a115,115,0,0,1,16.81,30.44,82.31,82.31,0,0,1,5,31.35,78.82,78.82,0,0,1-7.67,30.6,93.89,93.89,0,0,1-8.3,14.1c-1.59,2.24-3.29,4.42-5.07,6.54s-3.68,4.2-5.57,6.15C918.38,239.15,909.49,246,899.91,252.39Z"/></g><g class="cls-9"><path class="cls-10" d="M1279.8,300.22c-6.63-1.21-13.3-2.36-19.89-3.43-61-7.76-122.23-7.16-185.37-4.7s-128.32,6.84-197.81,6.54C779,294,668.81,312,570.73,319.25c58.31-1.15,117-4.24,175.72-7.64s117.26-7.11,175.4-9.39,115.79-3.17,172.46-1,112.3,7.32,166.09,17A186.52,186.52,0,0,1,1244,330.56a151.45,151.45,0,0,1-18,10.32,108.23,108.23,0,0,1-41.2,11c-72.47-1.94-144.82-.37-217.13,3.19-.65-7-1.91-20.71-2.55-27.6-101.46,19.89-202.61,21.63-304.66,23.44l-38.3.73c-12.8.24-25.54.65-38.4,1s-25.67.82-38.51,1.44c-13,.51-26.1,1.13-39.17,2-52.24,3.05-104.53,8.21-157.66,18.14,7.68,3.51,3.31,9.32,1.83,13.88l-1.51.07,1.51-.07c-1.33,4-.39,7,13,6.67-13.34.36-14.28-2.68-13-6.67,52.57-2.89,104.47-5.86,156.2-9q19.42-1.26,38.78-2.41l38-2.5,75.47-4.75c100.25-6.12,199.52-11.27,300.74-13.9-78.36,4-156.77,10.34-235.67,17L605,382.7l-59.89,4.87-30.56,2.21-15.29,1.11c-5.1.36-10.17.64-15.25,1-81.35,5.15-162.36,8.32-243.79,9.64s-163.21.66-246-2l-12.78-.39L-34,398.58l-28.2-1c-55.54-23.12-111.22-32.78-167.21-35.9,8-17-1.07-43.76,1.8-63.69,1.44-10,5.83-18.23,16.74-22.75s28.36-5.36,56-.5c.34-7,1-20.9,1.37-27.87-54.6-20.17-90.61-55.57-99-88.35-4.25-16.43-1.5-32.2,9.12-45.25,5.31-6.52,12.62-12.36,22.05-17.24s21-8.8,34.8-11.59C-124.49,73.75-53.19,77,21.39,80.93c37.3,2,75.37,4.13,113.44,4.95q28.53.59,56.92-.1,14.15-.45,28.2-1.27,7-.42,14-.94l7-.56,6.94-.67,40.33-2.88c13.4-1,26.78-2.06,40.17-3l10-.69,10-.75,20-1.38,20-1.23q10-.66,19.92-1.2t19.91-1l19.85-.86Q458,69,467.9,68.8l19.81-.39q9.89-.18,19.78-.17l9.9.07,10,.13q20.29.18,40.66,1.27c74.94,4.7,153.71.7,233.26-2.61,19.84-.82,39.89-1.62,59.79-2.22s40-1,59.88-1.06q15,0,29.89.18l14.88.3q7.46.21,14.89.5,14.88.58,29.63,1.51c9.83.62,19.7,1.46,29.47,2.39a218.78,218.78,0,0,0,22.91-.45c8.12-.53,16.71-1.31,25.48-2.31s17.76-2.16,26.74-3.36,18-2.29,26.85-3.32,17.4-1.94,25.58-2.56,16-.83,23.11-.7a111.13,111.13,0,0,1,19.23,1.82,52.53,52.53,0,0,1,7.76,2.13,31.62,31.62,0,0,1,6.32,3.17c20.93,9.07,22.35,23.88,20,40.57-23.2.34-46.28,1.28-69.36,2.12-11.54.45-23,1.06-34.52,1.6l-17.24.83c-5.74.27-11.46.63-17.18.94l-34.32,1.92-34.17,2.06-34.05,2-33.94,2c-55.57,1.14-111,2.41-166.19,2.84s-110.28.06-165-2.21c53.79,5,108.47,6.41,163.71,5.83s111.11-3.23,167.51-6.46l33.93-.64,17-.32,17-.24,34-.46,34.07-.21,17-.07,17.06.07c11.38.07,22.74.09,34.12.23,22.79.44,45.51.72,68.32,1.66-2.66,14.38-5.09,29.37,1,42.88l15.63-.72,13.67-.63,12.39-.43c28.47,16.5,39.28,37.09,39.84,58s-9.1,42.21-22,60.1C1295.44,283.71,1288,292,1279.8,300.22Z"/></g><g class="cls-8"><path class="cls-11" d="M1292.79,400.5c-7.06-.76-14.14-1.54-21.13-2.19-32.25-1.93-64.37-2.27-96.57-1.53s-64.56,2.37-97.33,4.27c-16.39.93-32.86,2-49.51,2.9s-33.43,1.81-50.39,2.59-34.09,1.47-51.46,1.79-34.95.49-52.78.32c-12.52-.66-25.23-.95-38.09-1s-25.87.14-39,.58-26.28,1.12-39.51,2q-9.91.63-19.86,1.39l-19.91,1.48c-26.54,2.1-53,4.63-79.11,7.13s-51.73,4.65-76.53,6.45q22.13-.37,44.38-1c14.83-.39,29.71-.78,44.59-1.39q44.64-1.71,89.59-3.73,44.88-2.19,89.89-4.25c30-1.4,59.94-2.8,89.87-3.83,119.69-4.41,238.51-5.21,353.45,7.48-21,19-46.81,35.07-78.49,38.29-19.23.29-38.35.75-57.45,1.23s-38.13,1-57.09,1.71c-37.91,1.42-75.67,2.94-113.19,4.92-.66-7.11-2-21-2.61-28C938.33,443.34,912.1,447,886,450q-19.59,2.17-39.12,3.73c-13,1-26,1.79-39,2.46q-39,1.93-77.83,2.54c-25.92.38-51.8.53-77.65.8l-38.81.36q-19.41.22-38.83.69t-38.85,1.36q-19.46.75-39,2t-39,3.17q-9.78,1-19.57,2.11c-6.53.77-13.07,1.51-19.62,2.37-26.2,3.4-52.5,7.91-79,13.88,7.81,3.33,3.62,9.35,2.28,14l-1.51.12,1.51-.12c-1.2,4.09-.16,7.14,13.16,6.37-13.32.77-14.36-2.28-13.16-6.37q39.4-3.57,78.23-6.48l38.73-2.94q19.31-1.44,38.52-2.75t38.37-2.46L574,482.42q19.1-1.16,38.16-2.18l38.13-2q38.08-2,76.27-3.62L764.84,473l38.36-1.5,77.23-2.64,39-1.18,39.24-1.09-30.47,1.64L897.75,470c-20.25,1.18-40.44,2.5-60.62,3.81s-40.34,2.61-60.46,4l-60.32,4.32q-30.15,2.17-60.24,4.52l-15.05,1.18L626,488.94l-30.12,2.27-60.25,4.71-60.36,4.54c-40.24,3.22-80.66,5.91-121.17,8.87-20.24,1.54-40.58,2.73-60.93,4.05L232,517.26l-61.57,3.27c-20.59,1.06-41.21,2.2-61.95,2.94-41.46,1.62-83.15,3.33-125.26,4l-57.4,1.22a445.14,445.14,0,0,0-86.38-21.19c-7.17-1.05-14.34-1.87-21.52-2.64s-14.34-1.43-21.51-1.93c-14.34-1-28.67-1.46-43-1.47,7.18-17.7-3.49-44.27-1.65-64.63s16-34.47,72.81-27.45c0-7.08-.12-21.25-.15-28.33-28.35-8.77-52.2-21.69-70.22-36.4S-276,313.37-281.2,297a54.54,54.54,0,0,1-2.33-24.16,49.2,49.2,0,0,1,9.16-22.21c10.1-13.83,28.4-25.33,56.16-32.4q11.72-2.64,23.89-4.65c4-.68,8.15-1.3,12.27-1.88s8.3-1.2,12.5-1.73c16.8-2.14,34.13-3.6,51.9-4.56,35.53-1.75,72.86-2.31,111.07-2.2l28.82.08,29.08-.17c19.45-.14,39-.37,58.56-.87,9.77-.2,19.56-.69,29.32-1.18s19.5-1.1,29.21-1.81,19.39-1.55,29-2.52,19.21-2,28.74-3.42c27.75-3.15,55.49-6.3,83.23-9.11L330.21,182,351,180q20.82-2,41.67-3.53,10.43-.76,20.86-1.41c6.95-.43,13.91-.89,20.88-1.26q20.9-1.14,41.83-1.62t41.93-.13q21,.19,42.1,1.31,29,1.89,58.59,2.53c19.7.34,39.55.36,59.5.17,39.89-.26,80.2-1.83,120.54-3,20.16-.55,40.35-1.29,60.5-1.73s40.26-.73,60.3-.73,40,.19,59.87.88,39.58,1.86,59.17,3.45c14.18.38,30.8-1.26,48.24-3.64s35.67-5.52,53.09-8.2c34.83-5.34,66.33-8.53,81.44.58,21.17,8,23.54,22.93,22.2,40-92.47,7.07-184.45,15.61-275.58,21l-42.08.94c-14,.27-28,.45-42.06.64l-42.08.42-21,.13-21,0c-28-.13-56.1-.39-84.15-1s-56.11-1.72-84.17-3q41.33,4.05,83.08,6c27.83,1.23,55.79,1.7,83.86,1.75l21.08-.07c7-.07,14.07-.2,21.12-.34q21.13-.45,42.34-1.19t42.5-1.75q21.27-1.08,42.63-2.39c91.24-2,182.57-5.4,274.09-7.23-1.82,14.73-3.46,30.06,3.52,43.39l42.12-4.41c59.91,29.33,51.12,80.1,26.69,118.27C1308.17,382.59,1301,391.5,1292.79,400.5Z"/></g><g class="cls-8"><path class="cls-11" d="M217.88,305.5c5,.69,10.06,1.39,15,2,45.61,3.48,90.1.47,135.75-3.08s92.44-7.69,142.22-6.33a447.58,447.58,0,0,0,53.93,1.09l13.87-.58q7-.33,14-.8c9.26-.6,18.43-1.33,27.65-2.17,36.82-3.3,73.5-8,107.85-10.53-40.94-.21-82.41,1-124.07,2.8l-31.6,1.39L540.85,291c-20.83,1.09-41.68,2.12-62.52,3-41.69,1.69-83.33,2.72-124.77,1.81s-82.68-3.64-123.63-9.5c13.25-18.74,30.26-34.68,52.4-37.94,54.19-1.46,107.41-4,160-7.4.86,7,2.54,20.66,3.39,27.54a471,471,0,0,1,54.45-11.1q13.6-2,27.21-3.28,6.79-.66,13.6-1.19c4.59-.35,9.23-.66,13.83-.93s9.22-.53,13.85-.71,9.27-.3,13.9-.41l7-.14,6.83-.09,13.59-.06c9.06,0,18.11.09,27.16.17l27.1.39c36.1.53,72.06.93,108.05-1.51s72-7.68,108.29-18.49c-5.44-3.42-2.66-9.28-1.83-13.85l1-.09-1,.09c.76-4,0-7-9.19-6.51,9.17-.53,10,2.5,9.19,6.51C806.44,224.76,736,229.4,665.06,232.69q-26.58,1.22-53.29,2.22l-54.31,2-27.28,1-27.08.92-54.78,1.7q42.71-2.78,84.92-6.1l85.48-6.74L786.5,214l83.64-6.68,42.12-3.21,10.85-.8,5.44-.39,5.56-.34,22-1.29c57.07-3.24,113.67-5.42,169.9-7.13l38.17-1.25a211.37,211.37,0,0,0,57.6,19.54c4.73.9,9.61,1.56,14.4,2.11,2.41.28,4.81.51,7.21.71,2.22.2,5.34.34,7.55.48a235.3,235.3,0,0,0,27.36,0c-1.63,8.85-.46,19.71,1.21,30.87s3.8,22.63,3.86,32.68-2,18.73-9,24.25c-3.48,2.76-8.19,4.73-14.5,5.68a66.47,66.47,0,0,1-10.79.63,115.36,115.36,0,0,1-13.26-1c.33,7,1,20.93,1.33,27.9a146,146,0,0,1,50.31,33.39c13.56,13.72,23.93,29.27,29.35,45a76.32,76.32,0,0,1,3.79,23.57,56.77,56.77,0,0,1-1.15,11.44,52.45,52.45,0,0,1-3.86,11A60.05,60.05,0,0,1,1300,480.83a92.24,92.24,0,0,1-25.73,15c-5.67,2-11.46,3.83-16.61,5.41-5.73,1.62-11.58,3-17.54,4.3s-12.18,2.32-18.42,3.25-12.55,1.67-19,2.32c-25.58,2.53-52.29,3-79.33,2.89-54.09-.15-109.6-2.28-161.21,6.73l-13.46,1.86-6.75.93-6.89,1-13.83,2L907,528.4c-19.11,2.48-38.18,4.68-57.24,6.29-38.13,3.19-76.2,4-114.59-.13-26.45-3.27-53.34-4.6-80.45-5-6.78-.08-13.58-.14-20.37-.11l-20.36.16L594,530l-20.13.53c-27.35.78-54.87,1.53-82.16,1.21a711.84,711.84,0,0,1-81.41-5.13c-19.39-.92-44.94,6.12-68.29,11.29s-44.57,8.38-55.62-.51c-15.1-7.82-18-22.43-18.42-39.14,62.88-7.29,125.36-15.32,187.53-20.07q28.77-.69,57.58-.85c9.6-.06,19.21,0,28.81,0l14.41.15c4.8.07,9.64.12,14.35.24,9.48.23,19,.42,28.4.89l14.18.69,14.39.8q28.78,1.71,57.6,4.55c-18.9-3.26-37.89-5.69-57-7.41q-7.15-.65-14.31-1.17c-4.77-.35-9.43-.65-14.16-.92-9.41-.59-18.9-.84-28.39-1-4.73-.09-9.54-.12-14.37-.12s-9.63,0-14.46.07q-14.46.21-29,.73-29,1.1-58.12,3.36c-62.43,1.43-124.87,4.37-187.62,6.54.06-14.43,0-29.47-5.92-42.51l-28.74,4.52c-21.92-14.17-32.55-33.67-35.93-54.36s.5-42.54,7.45-61.36C208.56,323.16,212.89,314.37,217.88,305.5Z"/></g><g class="cls-12"><path class="cls-13" d="M1008.58,496.26c-36.55,6.11-75.21,9.7-114.7,11.88s-79.84,3-120,3.6l-121.09,2c-40.6.62-81.31.85-120.94.71-47.39.27-94.78-3.62-140.8-9.2-11.49-1.4-22.94-2.89-34.28-4.44l-8.49-1.17-4.23-.6-1.06-.15-.27,0h-.29l-.73,0c-.48,0-1,0-1.44,0l-.71-.05H338.4c-1.78,0-3.56-.09-5.33-.16-.8-.05-2,0-3.06-.05l-3.28,0-3.27,0-1.64,0-1.81,0-7.22.08-3.61,0-3.8.1c-10,.23-20.55.62-31.17,1.08-21.28.9-43.24,2.15-65.27,3.45l-66.42,4.07c-44.37,2.77-88.73,5.58-132.46,8.15-.48-8.17,13.34-21.31-1.45-24.53-59-8.88-60-25.39-60.82-41.72-.42-8.14,43.64-2.4,28.65-9.77C20,437,92.26,428.4,48.25,422.88c-15-7.28-72.5,4.36-87.67-7.18s13.1-25.34-2-36.8l-28.85,1.53c-10.79.51-21.59,1.07-28.76,1.35-7.35-3.79-4-10.09-.67-15.36s6.71-9.51-.42-9.21c-21.59-3.13-46.46-3.22-72.46-2.86l-19.57.26-9.74.05-4.89,0-4.75-.06-4.76-.06c-1.59,0-3.23,0-4.67-.11l-9-.39-7.88-.67c-.31,0-.7-.05-.94-.09l-.68-.12-1.36-.21c-.9-.14-1.81-.27-2.72-.38.81-4-1.94-8.75-1.24-12.26.35-1.76,1.57-3.21,4.52-4.12a10,10,0,0,1,2.45-1.75,9.08,9.08,0,0,1,1.56-.63c.9-.19,2.05-.37,3.21-.51l3.79.3.47,0,.58,0,1.16,0,2.31.09c3.13.11,6,.31,9.56.3l10.23.13,10.72-.07c3.52,0,7.31-.14,11-.21l5.53-.13c1.83,0,3.69-.08,5.58-.16,7.55-.28,15-.5,22.69-.89,30.52-1.4,61.76-3.45,93.2-5.72,63-4.57,126.73-10.05,191.35-14.95,32.34-2.44,64.9-4.77,98.09-6.6,16.68-.86,33.38-1.69,50.7-2.14s34.79-.74,54.67,0c2.5.1,4.89.17,7.48.31l8.28.62,4.14.32,2.07.17c.37,0,.66.05,1.08.1l1.25.15q5,.63,10,1.32l4.89.71,2.94.48,5.9,1,11.74,1.9c15.59,2.51,31,4.92,46.23,7.14C475,322,504.78,325.7,533.89,328c14.59,1.17,28.84,2,43.49,2.46s29.46.7,44.5.68c30.08,0,61-1,92.61-2.1l95.84-3.53c31.84-1.18,63.44-2.43,94.77-3.94s62.43-3.22,93.25-5.33,61.29-4.74,91.46-7.87,60-6.78,89.41-11.35c7.42-1.05,14.58-2.25,21.57-3.43s13.78-2.43,20.28-3.74c13-2.6,25.06-5.53,35.33-8.69,9.51-2.27,14-2.54,16.8-1.23,2,.32,3,1.26,3.18,2.71a6.2,6.2,0,0,1-.4,2.54c0,.12-.09.24-.13.37s0,.21-.06.32-.07.44-.12.67c-.1.45-.22.92-.38,1.41a25.27,25.27,0,0,1-1.26,3.16,39.85,39.85,0,0,1-2.1,3.49,36.76,36.76,0,0,1-2.87,3.79c-.55.65-1.1,1.32-1.71,2l-1.95,2a128.61,128.61,0,0,1-21,16.59c5.44-3.57,8.81-2.45,12.31-1.34a16.09,16.09,0,0,0,5.41,1,11,11,0,0,0,6.44-2.7,12.75,12.75,0,0,1,.59,5,21.7,21.7,0,0,1-1.49,6.2,30.14,30.14,0,0,1-1.59,3.48,41.69,41.69,0,0,1-2.26,3.64,52,52,0,0,1-6.54,7.69,91,91,0,0,1-22.15,15.44,164.12,164.12,0,0,1-35,12.81c14-2.48,27.81-5.19,41.34-8.34,7.2.39,8,3.35,7.11,7.25s-3.37,8.7-2.45,12.69c-14,3.29-28.19,5.93-27.43,10l3.08,16.08c7.24-1.37,18.12-3.56,29-6.11s21.76-5.5,29-7.68c-14.45,4.37-29,7.65-28,11.66s2.8,12,3.74,16a144.66,144.66,0,0,1-24.5,6.43c-8.85,1.6-18.15,2.81-27.39,3.82s-18.47,2.09-27.19,3.3a166.7,166.7,0,0,0-24.12,4.75l1.71,12.16a221,221,0,0,0,24.74-1.92c8.8-1.16,18-2.9,27.21-4.67,18.36-3.6,37-8.33,52.33-11.92-7.19,3.77-10.58,6.58-12,9.49s-.76,5.92.08,9.93a224.3,224.3,0,0,1-34.09,7.15c-5.63.75-11.27,1.39-16.91,2s-11.28,1.28-16.91,1.82c-11.24,1.12-22.45,2.65-33.52,4.68-5.54,1.06-11.05,2.34-16.53,3.92a157.5,157.5,0,0,0-16.33,5.5c14.89-1.65,29.83-3.73,44.75-5.71-6.75,6.09-16.68,10.23-28.46,13.21-5.88,1.4-12.22,2.5-18.85,3.39-3.31.44-6.7.83-10.14,1.19s-6.92.57-10.44.81C1060.72,493.18,1030.72,492.49,1008.58,496.26Z"/></g><g class="cls-14"><path class="cls-10" d="M999.4,300.34c-33.63,5.59-69.24,8.72-105.66,10.35-9.09.37-18.26.72-27.45,1s-18.42.38-27.67.51l-27.74.16-27.75-.05c-73.94-.36-147.17-1.71-212.56,5.39-39.21,4.63-78.88,8.71-118.51,12.92-4.94.54-9.93,1-14.86,1.56l-14.84,1.63c-9.92,1-19.76,2.22-29.64,3.3-19.72,2.21-39.63,4.65-60,7.08C292.14,349,250.1,354,207,357.32c-21.56,1.67-43.37,3-65.35,3.63l-16.52.38c-5.49.09-11,.09-16.47.13s-10.91,0-16.35-.08l-8.13-.08-8.07-.2c.09-4,3.78-8.79,5.64-13.19s1.91-8.34-5.08-10.49c-28-6.63-41.39-14.5-47.86-22.22s-5.89-15.7-5.4-23.58c.12-2,2.72-2.79,6.33-3.05a105.71,105.71,0,0,1,12.49.17c8.45.48,15.23.67,8.64-3.52,5.07.2,10.56.35,16.21.44s11.47,0,17.18-.12,11.33-.42,16.56-.73,10.11-.83,14.33-1.33c8.45-1,14.33-2.44,15.56-3.92s-2.19-3.11-12.29-5c-3.37-2-9.24-2.87-16.34-3.45s-15.45-.76-23.79-1.27c-16.68-.84-33.31-2.7-39.61-9s-2.64-12,1-17.74,7.11-11.48,1-17.73c-12.94-.65-38.85-2.46-51.84-3.7-6.12-4.5-2.33-10.12,1.31-14.76s7.16-8.3.76-8.85c-18.85-5.61-41.15-8.89-65.34-11.76s-50.27-5.28-76.41-8.84c.53-3.91-2.24-8.27-1.78-11.69.23-1.71,1.27-3.19,3.93-4.26s6.87-1.75,13.51-1.85c57.05,6.68,113.14,12.33,168.2,14.55q41.31,1.75,81.72.57c6.73-.14,13.48-.52,20.22-.79l10.18-.58c3.39-.18,6.79-.39,10.22-.64l10.26-.72,10.33-.84c3.44-.26,6.9-.57,10.38-.89l10.42-.95c55.78-5.31,114-13.44,175.19-19.36,30.61-2.9,61.11-5.19,91.48-7s60.56-3.11,90.62-4.17c60.09-2.05,119.52-2.91,178.15-3.8q44-.65,87.36-1.5c14.49-.27,28.83-.66,43.18-1s28.63-.84,42.85-1.43,28.4-1.19,42.57-1.81c14.1-.79,28.23-1.47,42.21-2.43,7-.44,14-.86,21-1.42l20.89-1.57,20.76-1.8c3.47-.27,6.9-.62,10.34-1l10.3-1,10.3-1,10.21-1.17,10.22-1.17,5.11-.58,5.06-.66,20.24-2.64,20-3c26.59-4.14,52.71-9,78.12-14.75,11.66-2.18,18.57-2.26,21.88-.86,1.8.64,2.59,1.69,2.54,3.09a6,6,0,0,1-.7,2.34,17.23,17.23,0,0,1-1.65,2.7c-2.81,3.83-8.14,8.6-14.84,13.76-3.32,2.64-7.14,5.1-11.09,7.71s-8.1,5.17-12.29,7.72c5.57-3.4,9-2.2,12.51-1s7,2.41,12.57-1.07c1.52,5.79-2.56,14.88-13.35,24.61q-2,1.83-4.36,3.68c-.78.61-1.59,1.23-2.42,1.84s-1.72,1.19-2.61,1.78a129.39,129.39,0,0,1-12.08,7c-8.89,4.69-19.74,8.6-32.33,12.05l19.17-3.66,4.79-.91,4.76-1,9.53-2.05c6.76.55,7.43,3.44,6.57,7.15s-3.22,8.27-2.39,12.12c-3.23.7-6.47,1.4-9.49,2.11-1.51.36-3,.72-4.34,1.09s-2.68.68-3.88,1c-4.77,1.42-7.84,3-7.46,4.95.74,3.87,2.23,11.63,3,15.5l12-2.29,14.41-3.11,7.35-1.58c2.42-.52,4.79-1,7-1.59l11.88-2.88c-3.28.79-6.55,1.59-9.61,2.39-1.53.4-3,.81-4.4,1.22s-2.71.76-3.92,1.15c-4.83,1.55-7.92,3.22-7.5,5.15.84,3.85,2.51,11.57,3.35,15.44a123.6,123.6,0,0,1-22,5.69c-4,.7-8.13,1.33-12.32,1.92s-8.42,1.17-12.67,1.6c-8.5.91-17,1.9-25,3a146.32,146.32,0,0,0-22.13,4.4l1.64,11.72a194.17,194.17,0,0,0,22.74-1.68c8.1-1.08,16.58-2.7,25-4.35,4.22-.8,8.44-1.78,12.6-2.74l12.26-2.83c8-1.76,15.57-3.77,22.35-5.2-12.74,6.78-12,10.66-10.41,18.39-5,1.54-10.16,2.72-15.3,3.79s-10.32,2-15.5,2.72-10.38,1.28-15.58,1.85-10.39,1.2-15.56,1.67c-20.73,2.16-41.17,4.93-61,13.16,3.42-.4,6.84-.75,10.27-1.18l10.29-1.33,10.3-1.33c3.43-.45,6.85-.86,10.29-1.39a41.29,41.29,0,0,1-11.32,7.42,86.2,86.2,0,0,1-14.81,5.09,141.87,141.87,0,0,1-17.34,3.17c-6.1.78-12.47,1.41-18.94,1.82-12.93.72-26.36,1.16-39,1.5-6.34.21-12.52.51-18.37,1S1004.49,299.49,999.4,300.34Z"/></g><g class="cls-15"><path class="cls-10" d="M886.72,230.25a809.06,809.06,0,0,1-81,5.38c-28.15.61-57.24.28-86.59-.58l-11-.31-11-.39-22-.78c-14.72-.66-29.36-1.15-43.81-1.74-28.88-1.1-56.69-1.92-82.95-1-31.55,1.4-63.16,1.82-94.44,2.15-15.62.19-31.21.29-46.62.56-7.74.08-15.38.29-23,.42l-11.43.31c-3.8.1-7.6.18-11.46.35L349.8,235l-11.7.46-11.74.45-11.85.51-47.56,2-94.46,4.13c-.32-7,9.59-18-1-21.1-42-8.68-42.66-22.74-43.28-36.81-.32-7,31.17-1.42,20.47-8,31.17-1.45,83-7.15,51.47-12.86-10.69-6.59-51.95,2.3-62.81-7.77s9.43-21.57-1.44-31.64l-41.58,1.88c-10.68-6.58,9.43-21.58-1-21.11C62,99.52,20.64,104.94-20,106.1c-.1-3.52-2.8-7-2.88-10-.05-1.54.56-3,2.48-4.3s5-2.52,10-3.55c22.15-1.13,44.69-2.49,67.35-4l68.28-4.56C171,76.57,217,73.37,263.49,70.62,286.75,69.24,310.13,68,334,67c6-.23,11.88-.49,18-.64l9.1-.26,4.55-.13,4.59-.07q18.41-.35,36.61-.22c48.55.28,95.92,2.66,142,5,23,1.18,45.73,2.36,68.12,3.3l16.73.65,16.61.55,33.18.73c44.41.66,89.45.28,135.09-.14s91.94-.86,138.74-.2c11.67.12,23.47.44,35.21.73,5.85.12,11.78.36,17.68.57l17.7.66,17.78.91c5.93.34,11.82.58,17.79,1l17.84,1.24c3,.22,5.93.39,8.91.66l8.95.79c10.87,1.54,16.9,3.46,19.31,5.59a2.93,2.93,0,0,1,1,3.35,8.35,8.35,0,0,1-3.36,3.56c-3.58,2.42-9.52,4.92-16.61,7.36-3.54,1.21-7.37,2.41-11.34,3.58s-8,2.41-12.12,3.54c5.44-1.52,8,.36,10.61,2.24s5.17,3.84,10.64,2.4c-.15,2.64-1.67,5.63-4.52,8.65a47.32,47.32,0,0,1-12.47,8.92,90.1,90.1,0,0,1-20.18,7.36,149,149,0,0,1-27.78,4.05l15.76.48,7.88.24,7.89.35c10.36,4-.46,10.55-.73,17.59-2.61-.12-5.21-.24-7.66-.29s-4.73,0-6.69.18c-3.92.32-6.55,1.12-6.61,2.89l-.44,14.07c10.34.2,31,1.22,41.31,1.66-10.31-.46-20.64-.92-20.78,2.59s-.44,10.56-.59,14.08a72.41,72.41,0,0,1-8.14.51c-2.85.06-5.81,0-8.86-.15-6.08-.29-12.47-.93-18.87-1.57s-12.84-1.11-18.94-1.34a85.4,85.4,0,0,0-17.07.76l-.12,10.55a136.41,136.41,0,0,0,17,1.72c6.07.28,12.47.29,18.87.19s12.76-.16,18.83-.25c3-.05,6-.08,8.82-.08s5.53.1,8.08.21c-10.32,3-10.45,6.63-10.7,13.66a145,145,0,0,1-22.83-.15c-7.6-.54-15.24-1.29-22.87-1.89a161.48,161.48,0,0,0-23-.38,85.94,85.94,0,0,0-23.05,4.4c10.27,0,20.45.11,30.66.18-5.15,4.35-12.17,6.72-20.29,7.86s-17.43,1.2-27,.75-19.6-1.22-29.08-1.72S894.46,229.3,886.72,230.25Z"/></g><g class="cls-16"><path class="cls-10" d="M-59.46-15.62-42-15.94c26.77-1,53.44-2.49,80.26-4.22s53.8-3.7,81.15-5.6c54.69-3.76,110.91-7.26,170.2-7.85,41.34.51,85.52-1.42,130.25-3,22.35-.77,44.81-1.4,66.95-1.57s43.93.1,64.9.91c-24.83-1.61-49.94-2.57-75.12-2.91s-50.42-.08-75.52.53-50.12,1.5-75,2.4l-74.8,2.74c-99.82,3.84-198.66,8.61-293.85,9.79A214.45,214.45,0,0,1-12.21-36.76a192.13,192.13,0,0,1,36.61-7.5c64.16-4.08,127.43-7.8,190.2-11,.2,2.86.6,8.46.8,11.28,22.14-2.66,44.15-4.65,66-6.19,11-.76,21.78-1.39,32.6-2s21.64-1,32.47-1.44c43.28-1.59,86.89-1.95,130.85-.74,21.95.59,43.94,1.57,65.88,2.78s43.81,2.65,65.91,4.19,44.37,3.16,66.8,5,45,3.7,67.27,5.22c-6.08-2.43-2-4.18-.42-5.81l1.25.17-1.25-.17c1.42-1.42.87-2.76-10.19-4.38,11.06,1.62,11.61,3,10.19,4.38-21.79-2.87-43.95-5.68-66.08-8s-44.21-4.2-66.06-5.7-43.51-2.68-65.24-3.54-43.47-1.4-65.17-1.58c-43.46-.37-86.47.71-129.14,2L287-57.87q-32.41,1-65.26,2.25l50.89-2.46,50.44-2.26c33.51-1.51,67.22-3.07,101.35-4s68.64-1.28,103.07-.49,68.53,2.4,103.11,5c17.26,1.26,34.59,3,51.86,4.84s34.44,4.15,51.34,6.47c33.88,4.71,66,9.57,98.22,13.18l6,.7,6,.63,12.09,1.27c8.07.73,16.15,1.57,24.25,2.19,16.19,1.42,32.46,2.44,48.78,3.39q49,2.64,98.77,2.45c11.3,0,34-.38,45.29-.74,45.58,7.1,91.59,6.82,137,1.87-4.92,7.74,4.79,17.37,4.27,25.67A9.07,9.07,0,0,1,1211.81,8c-1.83,1.83-4.72,3.52-9.06,5A95.05,95.05,0,0,1,1185,16.8a285.56,285.56,0,0,1-28.78,1.79c.22,2.84.66,8.52.87,11.36,5.92.4,11.62.93,17.1,1.55s10.72,1.38,15.71,2.09a233.9,233.9,0,0,1,26.84,5.56c15.69,4.14,26.85,9.56,32.12,15.58,2.59,3,3.73,6.15,3.25,9.38s-2.58,6.52-6.57,9.78c-7.94,6.48-23.18,13.11-47.12,18.22-3.37.69-6.77,1.39-10.22,2s-6.94,1.18-10.46,1.74c-7,1.11-14.23,2.24-21.56,3.15s-14.79,1.71-22.36,2.48c-3.79.41-7.61.71-11.46,1l-11.62.86c-31.19,2.13-64,2.76-97.63,2.22C945.9,104.52,875.76,98.65,808.7,93c-24.33-2.31-48.49-5.19-71.74-8.09s-45.74-5.72-68-8.17-44.45-4.6-66.88-6.66l-67.62-6.21q-23.25-2.28-47-3.44c-15.86-.76-31.92-1.15-48.16-1.29-32.48-.23-65.78.63-99.39,1.58l-50.45,1.42-49.9,1.28c-33.13.8-65.94,1.39-98.13,1.3-23.37.57-55.19,4.93-84.11,8.61S2.27,79.86-9.81,77c-17.12-2.16-18.5-8.1-16.72-15.11C50,54,126.4,47,202.09,42.57q34.86-1.44,69.72-2.29l17.44-.39,17.47-.33,35-.52c46.63-.55,92.79-.43,138.27,2.24-44.49-3.75-90.28-4.35-136.95-3.73-23.32.32-46.89.87-70.31,1.68s-47,1.94-70.66,3.34c-75.61,3-151.24,7.92-226.85,13.57,2.09-6.09,4.05-12.42-1.2-17.48l-35,4.14c-48.4-8.35-39.39-29.54-17.63-46.61C-72.94-7.44-66.6-11.5-59.46-15.62Z"/></g><g class="cls-17"><path class="cls-18" d="M1056.4,681.69c-5.54-1.18-11-2.51-16.43-3.64-25-4.31-49.44-7.41-73.68-9.84S918,664,894,662.32s-48.13-3.26-72.39-5.29l-18.22-1.62c-6.11-.59-12.2-1.18-18.31-1.84l-18.45-2.06q-9.29-1.1-18.67-2.4c-8.78-1.74-17.71-3.22-26.78-4.31s-18.28-1.79-27.56-2.33q-7-.4-14-.66c-4.67-.16-9.36-.31-14.07-.3-9.4,0-18.85.09-28.29.33-18.87.37-37.77,1.6-56.33,2.71s-36.83,2.48-54.47,3.29c84,2.29,169.54,2,253.76,9.21q63.22,5.4,128.15,16.1,32.48,5.33,65.4,11.94t66.64,14.4c-17.35,17.16-38.84,30.86-63.47,31-59.35-6.12-114.83-12.23-167.76-16.11.11-7,.31-20.82.42-27.74q-7.08.89-14.13,1.54t-13.93,1.18c-9.27.65-18.44,1.2-27.61,1.45s-18.29.3-27.4.17-18.23-.21-27.31-.55S681,689.64,672,689.09s-18.16-1-27.23-1.58l-27.21-1.89L590.27,684c-72.68-4.29-146.12-5.13-220.18,18.07,5.64,3.31,2.9,9.23,2.14,13.81l-1.07.12,1.07-.12c-.7,4,.15,7,9.49,6.33-9.34.71-10.19-2.3-9.49-6.33a1794.69,1794.69,0,0,1,216.32-13.53q13.34,0,26.67.08c8.9.08,17.77.36,26.66.58l26.68.84c8.9.36,17.79.88,26.7,1.36L722,706.76c8.93.63,17.86,1.38,26.83,2.12l27,2.31c9.07.88,18.07,1.78,27.31,2.77-7.17-.52-14.22-1-21.28-1.4s-14.07-.74-21.1-1.07l-21-.88-10.52-.39-5.25-.19-5.27-.1q-21.06-.39-42.07-.55l-5.26,0-5.26,0-10.52.09-21,.27c-56.1,1-112.17,4-168.55,8.41s-113.06,10.05-170.43,16.1S180.06,746.92,120.78,753l-40.45,4.24a242.18,242.18,0,0,0-63.22-15.15,289.74,289.74,0,0,0-61.71.6c6.36-35.83-42.07-100.81,41.05-95.86-.75-6.94-2.27-20.83-3-27.77-85.43-25.78-127-119.57-48.17-156.37,44.58-18.92,98.46-24.84,155.48-28.92s116.92-6.39,173.65-18.34c20.75-3.47,41.49-7,62.33-10.06q15.66-2.25,31.34-4.21,7.85-1,15.69-1.84c5.24-.57,10.5-1.06,15.75-1.52,21-1.84,42.08-3.13,63.3-3.07q15.88,0,31.81.74c10.64.58,21.3,1.52,32,2.75,58.68,7.72,119.67,9.14,180.89,13.06,15.26.81,30.59,2.1,45.84,3.41q11.43,1,22.83,2.16c7.58.79,15.11,1.73,22.63,2.7a680.72,680.72,0,0,1,86.6,16.84c20.27,3.83,47.91.73,72.44-1s46.12-2.12,56,8.05c14.08,9.67,15.22,24.45,13.64,41.12-64.59-.29-130.53-2.71-197.5-6.91L799,474.2c-10.37-1.12-20.76-2.31-31.19-3.35l-31.29-3.33-15.67-1.73-15.65-1.6q-15.68-1.63-31.36-3.43l-7.85-.89-7.83-.83-15.69-1.73q-15.71-1.79-31.43-3.75-15.7-1.8-31.44-3.82,15.43,3,30.9,5.52,15.51,2.65,31,4.86,7.77,1.11,15.55,2.09l15.59,1.94q15.62,2,31.28,3.54l31.4,3q15.74,1.45,31.53,2.62l31.58,2.27c10.48.75,21,1.43,31.43,2.09,66.76,7.52,131.66,14.94,195.92,20.35-1.87,14.32-3.74,29.25.7,42.92l11.42-.43,10-.4,9-.47c10.59,8.24,18.24,17.27,23.46,27a75.86,75.86,0,0,1,8.74,30.49c1.57,20.9-4.92,42.34-14.94,60.5C1069,665,1063.15,673.33,1056.4,681.69Z"/></g><g class="cls-2"><path class="cls-3" d="M1153.1,90c-6.2,0-12.41-.07-18.55,0C1078,91.42,1022.13,96.8,964.72,102c-28.69,2.65-57.78,5.2-87.48,7.33s-60,3.64-91.22,4.12c-21.89-.34-44.46.12-67.37,1.09s-46.09,2.42-69.55,4c-46.88,3.09-94.76,6.18-140.28,5.06,53.89,3.45,107.63,2,160.24-.27,26.28-1.17,52.47-2.54,78.74-3.93l78.7-4.45c104.82-5.93,208.76-11.77,309.79-10.77a168.4,168.4,0,0,1-30.8,18.82,135.58,135.58,0,0,1-38,11.26L867.15,149.12c-.49-4.69-1.45-13.85-1.93-18.46C819,139,773.09,143.56,727.47,146.09c-11.41.67-22.8,1.11-34.18,1.55s-22.77.72-34.24,1q-34.42.69-69.64.26-17.6-.2-35.42-.75t-35.83-1.4c-12-.57-24.15-1.28-36.1-2.08l-35.56-2.51C423,140.41,400,138.8,377.27,138s-45.79-1-69.14-.2c6.33,3.09,2.08,6.52.44,9.4l-1.31-.1,1.31.1c-1.48,2.52-.91,4.64,10.58,5.7-11.49-1.06-12.06-3.18-10.58-5.7q34.15,2.33,67.62,4.93c22.26,1.74,45,3.67,68.29,5.33q17.47,1.24,35.36,2.2c11.9.64,24.05,1.1,36,1.4,24,.61,47.59.56,70.86.16s46.23-1.16,68.89-2l67.47-2.83c45-2,90.38-4.14,136.53-6.64L752.8,157.26l-53.14,3.54c-17.65,1.2-35.39,2.31-53.4,3.37-36,2.11-72.84,3.73-110.59,3.86-9.46,0-18.94-.05-28.5-.26s-19.15-.5-28.57-.91c-18.88-.82-37.36-2-55.41-3.37s-35.64-2.81-53-4.21L317.89,155c-35-2.87-70.27-5.84-105.83-9.12s-71.41-6.89-107.6-11.05c-9-1-18.1-2.09-27.2-3.23l-13.64-1.68-13.68-1.78c-9.13-1.17-18.29-2.45-27.45-3.72q-6.88-.94-13.78-2L-6.06,120.3-8,120l-2.85-.47-.71-.13a3.36,3.36,0,0,0-.7-.15l-1.42-.26c-1.89-.36-3.79-.67-5.66-1.12-3.76-.81-7.48-1.78-11.18-2.82L-36,113.4l-5.48-1.81c-1.82-.61-3.63-1.28-5.44-1.94l-2.6-1-2.13-.83c-5.47-2.12-10.12-4.07-13.9-5.66s-6.85-2.88-9.16-3.79l-1-1.09a5.05,5.05,0,0,1-.42-.51l-.36-.47-.37-.47-.18-.24a2.12,2.12,0,0,1-.12-.2l-.44-.8a1.5,1.5,0,0,1-.21-.69l-.06-.34c0-.11-.06-.23,0-.3-.39,1.45,1.34-4.4,2.22-7.85l.74-2.89c.13-.54.23-.85.33-1.24l.32-1.13c.41-1.5.81-3,1.18-4.54s.73-3.05,1.06-4.58l.49-2.31.43-1.84c.57-2.43,1.05-4.9,1.46-7.39l.15-.93c0-.32.09-.64.14-.86l.28-1.48c.18-1,.33-2,.47-3s.27-2,.37-3l.07-.75.09-.6.15-1.19c.19-1.6.31-3.22.36-4.87.11-1.29.17-2.52.17-3.81l0-3.27c0-.48,0-1-.09-1.45l-.07-.73c0-.23,0-.35,0-.52a16.2,16.2,0,0,0-.26-2c-.08-.42-.07-.48-.11-.71s-.07-.39-.12-.59a5.15,5.15,0,0,0-.16-.62l0-.19-.06-.21,0-.12s0-.11,0,0A12,12,0,0,0-68,29.68l.27.47.14.22.22.4a15.65,15.65,0,0,0,1,1.6l.27.36.36.53c.25.38.52.75.79,1.11s.55.7.83,1l.43.49.21.24.28.34a32.39,32.39,0,0,0,2.3,2.62c.39.41.8.81,1.21,1.2l.08.07,0,0C-65.82,34-4.38,96.27-30.42,69.94l-.28.24-.56.48-1.13,1c-3,2.53-6,5-9.27,7.36s-6.49,4.65-10,6.74A152.92,152.92,0,0,1-94.29,104a178.31,178.31,0,0,1-37.57,5.32c-10.85.39-20.08,0-27.82-.49l-10.25-.66-4.16-.25-1.79-.09-1.65-.06c2.39-5.75,2.22-13.07,1.42-20.63-.21-1.84-.43-3.79-.64-5.69s-.38-3.78-.53-5.64a56.31,56.31,0,0,1-.07-10.69,17.41,17.41,0,0,1,3.31-9c2-2.63,5.13-4.75,10-6.22,1.23-.36,2.54-.69,4-1,.73-.15,1.49-.28,2.27-.41s1.64-.25,2.51-.35c3.44-.44,7.46-.75,12.21-1.08s10.21-.64,16.66-1.42A113.67,113.67,0,0,0-104,40.72c-1.77-4.32-5.3-13-7.06-17.3a57.51,57.51,0,0,1-19.53.12,76.25,76.25,0,0,1-16.47-4.7c-10-4.08-18.44-9.36-26.67-14.48-4.12-2.57-8.22-5.11-12.47-7.51l-3.23-1.75-3-1.69c-2-1.15-3.85-2.15-5.68-3.25-7.31-4.17-13.37-7.76-17.6-11.92A28,28,0,0,1-221.5-36.9a25.29,25.29,0,0,1,.12-4q.1-1,.3-2c.07-.34.13-.67.22-1s.33-.76.51-1.14a32.68,32.68,0,0,1,2.78-4.69,41.55,41.55,0,0,1,4.11-4.67,53.79,53.79,0,0,1,12.6-8.82c1.3-.7,2.68-1.32,4.11-2,.73-.32,1.43-.64,2.23-1l2.67-.9c1.81-.59,3.79-1.18,5.45-1.68l2.68-.76,2.63-.71c7-1.83,13.4-3.2,19-4.43a134.1,134.1,0,0,0,13.53-3.46l.63-.18.51-.2,1-.38.7-.4.35-.19c.11-.06.14-.13.22-.19s.25-.26.37-.37.06-.25.09-.36v-.08l.23,2.14.14,1.16.07.58,0,.46.17,1.81q.36,3.63.92,7.29l.28,1.79.19,1.44c.14,1,.28,1.92.45,2.88s.34,1.93.53,2.89l.3,1.45.2,1.14c.28,1.51.61,3,1,4.55l.29,1.15.21.9c.14.59.29,1.17.45,1.76s.33,1.17.51,1.76l.29.89c.1.3.13.45.2.69.25.86.54,1.74.88,2.61l.25.66a4,4,0,0,1,.18.5c.11.29.22.59.34.89s.25.6.39.91.31.66.35.77a9.28,9.28,0,0,0,.51,1.06l.32.62.12.2.07.11,0,.05v0c-.06-.1-.12-.18-.17-.25l-.39-.53a9.71,9.71,0,0,0-.63-.74c-.31-.39-.74-.9-1.12-1.29-.19-.21-.39-.41-.59-.6l-.14-.14-.08-.07,0,0c7,7.11-61-61.87-32.19-32.72l.19-.19,1.51-1.5c2-2,4.1-3.94,6.22-5.85,1-.94,2.24-2,3.42-2.93s2.4-2,3.62-2.91,2.44-1.9,3.68-2.83,2.69-1.89,4-2.82,2.76-1.83,4.16-2.72,2.75-1.77,4.29-2.63a143.07,143.07,0,0,1,39.34-15.6,147.46,147.46,0,0,1,38.84-3.76,169.85,169.85,0,0,1,30.31,3.86q3.11.69,6.2,1.46c1.94.5,3.77,1,5.65,1.53.94.26,1.89.53,2.7.78l2.54.79,2.53.8,2.32.77,2.3.79,2.22.77,4.16,1.53,3.8,1.46,3.53,1.39,6.32,2.59L19-94.75,23.18-93l3.06,1.24.27.11,0,0a.09.09,0,0,1,.06,0,.37.37,0,0,0,.14.07c.08.06.18.08.27.15s.38.16.57.27l.27.06h.07l0,0,.2,0,.82.13,3.25.53,6.53,1.08,13.12,2.15c8.8,1.4,17.63,2.86,26.55,4.21l13.39,2.06,13.47,2c9,1.31,18,2.52,27.1,3.69,36.24,4.68,72.92,8.16,109.08,9.29,48.54,2.58,97.4,4.73,146.43,8.63l18.35,1.54L424.33-54c11.92,1.16,23.56,2.36,35,3.6S482-47.95,493-46.68l32.85,3.79c30.45,3.79,62.75,5,96.33,4.86,16.78-.08,33.87-.47,51.23-1L699.48-40l26.09-1c34.79-1.44,69.59-3,104.1-4.11s68.72-1.68,102.39-1c24.4-.52,57.22-7.08,87.11-12.29,14.94-2.65,29.17-4.88,41.28-5.91a119.38,119.38,0,0,1,16.41-.39,39.93,39.93,0,0,1,12.22,2.26c18.23,4.07,20.44,13.8,19.44,25.16C1029-26.89,949.6-17.17,870.8-10.71c-48.47,2.64-97,4.46-145.48,5.19l-18.19.24-18.19.09c-12.13.05-24.27,0-36.3-.11-24.07-.29-47.87-1-71.24-2.49C604.29-5.38,627.77-4,651.63-3.36c11.94.34,24,.51,36.08.53h18.16l18.18-.24c48.57-.83,97.54-3.56,146.75-7.63,78.86-4.23,157.69-10.5,236.57-17.34-1.43,9.85-2.72,20.11,3.44,28.51l36.4-5.59c26.09,7.66,37.51,20,39.78,33.85s-4.65,29.15-15.09,42.66C1166.38,77.09,1160.16,83.49,1153.1,90Z"/></g></svg>