<?xml version="1.0" encoding="iso-8859-1"?>
<!-- Generator: Adobe Illustrator 19.0.0, SVG Export Plug-In . SVG Version: 6.00 Build 0)  -->
<svg version="1.1" id="Layer_1" xmlns="http://www.w3.org/2000/svg" xmlns:xlink="http://www.w3.org/1999/xlink" x="0px" y="0px"
	 viewBox="0 0 512.003 512.003" style="enable-background:new 0 0 512.003 512.003;" xml:space="preserve">
<path style="fill:#FF4B4B;" d="M399.037,0.002H112.966c-53.109,0-95.143,45.163-91.209,98.126
	c13.57,182.735,63.093,264.506,78.816,413.874H411.43c15.723-149.369,65.246-231.141,78.817-413.874
	C494.18,45.166,452.146,0.002,399.037,0.002z"/>
<circle style="fill:#FF664E;" cx="256.001" cy="365.717" r="100.571"/>
<circle style="fill:#FF8551;" cx="256.001" cy="393.145" r="64"/>
<path style="fill:#FFFFFF;" d="M248.241,321.601c1.698,32.832-22.707,44.678-27.864,70.813
	c-4.263,21.606,9.711,43.899,31.609,46.232c21.998,2.343,40.586-14.837,40.586-36.358c0-24.304-14.357-62.963-36.709-84.178
	C252.982,315.375,248.037,317.633,248.241,321.601z"/>
<path style="fill:#FFDC78;" d="M255.336,380.27c-3.536,13.8-19.976,18.949-20.23,37.263c-0.119,8.603,4.483,16.531,12.49,19.683
	c15.033,5.92,29.303-5.001,29.303-19.255c0-13.959-4.144-28.954-16.123-39.449C258.877,376.848,255.962,377.824,255.336,380.27z"/>
<path style="fill:#963737;" d="M301.715,466.288h-36.571v-45.714c0-5.054-4.089-9.143-9.143-9.143c-5.054,0-9.143,4.089-9.143,9.143
	v45.714h-36.571c-5.049,0-9.143,4.094-9.143,9.143v27.429h109.714v-27.429C310.858,470.382,306.765,466.288,301.715,466.288z"/>
<path style="fill:#C83741;" d="M420.573,493.717h-43.949c5.327-56.552,13.647-104.232,22.457-154.072
	c12.384-70.035,25.197-142.456,30.447-246.697c1.794-35.705-9.169-69.679-29.33-90.875c-0.697-0.734-1.431-1.376-2.143-2.072h-41.67
	c13.733,0,24.197,7.982,30.562,14.679c16.527,17.366,25.839,47.009,24.312,77.358c-5.187,103.089-17.893,174.937-30.187,244.429
	c-8.973,50.734-17.441,99.254-22.813,157.25H153.742c-5.371-57.997-13.84-106.517-22.813-157.25
	c-12.295-69.491-25-141.339-30.187-244.429c-1.527-30.349,7.786-59.991,24.312-77.358c6.367-6.695,16.831-14.677,30.563-14.677
	h-41.67c-0.713,0.696-1.446,1.337-2.143,2.072C91.643,23.27,80.68,57.243,82.474,92.949c5.25,104.241,18.063,176.661,30.447,246.697
	c8.809,49.839,17.131,97.519,22.457,154.072H91.43c-5.054,0-9.143,4.089-9.143,9.143s4.089,9.143,9.143,9.143h329.143
	c5.054,0,9.143-4.089,9.143-9.143C429.715,497.807,425.626,493.717,420.573,493.717z"/>
<g>
</g>
<g>
</g>
<g>
</g>
<g>
</g>
<g>
</g>
<g>
</g>
<g>
</g>
<g>
</g>
<g>
</g>
<g>
</g>
<g>
</g>
<g>
</g>
<g>
</g>
<g>
</g>
<g>
</g>
</svg>
