<svg id="Capa_1" enable-background="new 0 0 512 512" height="512" viewBox="0 0 512 512" width="512" xmlns="http://www.w3.org/2000/svg"><g><g><path d="m327.038 388.05c8.25 0 15-6.75 15-15v-51.713c0-8.25-6.75-15-15-15h-142.076c-8.25 0-15 6.75-15 15v51.713c0 8.25 6.75 15 15 15z" fill="#66e1dc"/><path d="m342.038 373.05v-51.713c0-8.25-6.75-15-15-15h-71.038v81.713h71.038c8.25 0 15-6.75 15-15z" fill="#00c7c7"/><path d="m170.137 373.05-18.754 121.665c-.667 4.326.589 8.728 3.439 12.05 2.85 3.323 7.008 5.235 11.386 5.235h179.584c4.377 0 8.536-1.912 11.386-5.235 2.85-3.322 4.106-7.724 3.439-12.05l-18.754-121.665z" fill="#fff5f5"/><path d="m360.617 494.715-18.754-121.665h-85.863v138.95h89.792c4.377 0 8.536-1.912 11.386-5.235 2.85-3.322 4.106-7.724 3.439-12.05z" fill="#eee1dd"/><path d="m360.617 494.715-18.754-121.665h-171.726l-18.754 121.665c-.667 4.326.589 8.728 3.439 12.05 2.85 3.323 7.008 5.235 11.386 5.235h179.584c4.377 0 8.536-1.912 11.386-5.235 2.85-3.322 4.106-7.724 3.439-12.05zm-89.617-12.715c0 8.284-6.716 15-15 15s-15-6.716-15-15v-43.281c0-8.284 6.716-15 15-15s15 6.716 15 15z" fill="#00c7c7"/><path d="m360.617 494.715-18.754-121.665h-85.863v50.669c8.284 0 15 6.716 15 15v43.281c0 8.284-6.716 15-15 15v15h89.792c4.377 0 8.536-1.912 11.386-5.235 2.85-3.322 4.106-7.724 3.439-12.05z" fill="#1cadb5"/><path d="m256 76.365c-8.284 0-15-6.716-15-15v-46.365c0-8.284 6.716-15 15-15s15 6.716 15 15v46.365c0 8.284-6.716 15-15 15z" fill="#fff5f5"/><path d="m271 61.365v-46.365c0-8.284-6.716-15-15-15v76.365c8.284 0 15-6.716 15-15z" fill="#eee1dd"/><path d="m298.324 121.235-7.188-61.608c-.882-7.561-7.287-13.262-14.899-13.262h-40.475c-7.612 0-14.017 5.701-14.899 13.262l-7.188 61.608c-.496 4.252.848 8.514 3.695 11.711 2.846 3.198 6.923 5.027 11.204 5.027h54.85c4.281 0 8.358-1.829 11.204-5.027 2.848-3.197 4.192-7.459 3.696-11.711z" fill="#00c7c7"/><path d="m294.629 132.946c2.847-3.198 4.191-7.459 3.695-11.711l-7.188-61.608c-.882-7.561-7.287-13.262-14.899-13.262h-20.237v91.608h27.425c4.281 0 8.358-1.829 11.204-5.027z" fill="#1cadb5"/><path d="m354.88 113.281c-2.85-3.367-7.038-5.308-11.449-5.308h-174.863c-4.411 0-8.599 1.941-11.449 5.308s-4.074 7.817-3.346 12.168l16.393 97.944c1.21 7.228 7.466 12.524 14.794 12.524h142.077c7.329 0 13.584-5.296 14.794-12.524l16.393-97.944c.73-4.35-.494-8.801-3.344-12.168z" fill="#fff5f5"/><path d="m354.88 113.281c-2.85-3.367-7.038-5.308-11.449-5.308h-87.431v127.944h71.039c7.329 0 13.584-5.296 14.794-12.524l16.393-97.944c.728-4.35-.496-8.801-3.346-12.168z" fill="#eee1dd"/><path d="m354.88 113.281c-2.85-3.367-7.038-5.308-11.449-5.308h-174.863c-4.411 0-8.599 1.941-11.449 5.308s-4.074 7.817-3.346 12.168l16.393 97.944c1.21 7.228 7.466 12.524 14.794 12.524h142.077c7.329 0 13.584-5.296 14.794-12.524l16.393-97.944c.73-4.35-.494-8.801-3.344-12.168zm-120.956 73.664h-13.349c-8.284 0-15-6.716-15-15s6.716-15 15-15h13.349c8.284 0 15 6.716 15 15s-6.716 15-15 15zm57.501 0h-13.349c-8.284 0-15-6.716-15-15s6.716-15 15-15h13.349c8.284 0 15 6.716 15 15s-6.716 15-15 15z" fill="#66e1dc"/><path d="m354.88 113.281c-2.85-3.367-7.038-5.308-11.449-5.308h-87.431v127.944h71.039c7.329 0 13.584-5.296 14.794-12.524l16.393-97.944c.728-4.35-.496-8.801-3.346-12.168zm-63.455 73.664h-13.349c-8.284 0-15-6.716-15-15s6.716-15 15-15h13.349c8.284 0 15 6.716 15 15s-6.716 15-15 15z" fill="#00c7c7"/><path d="m341.833 321.336 16.393-97.943c.729-4.351-.495-8.801-3.345-12.168s-7.038-5.308-11.449-5.308h-174.864c-4.411 0-8.599 1.941-11.449 5.308s-4.074 7.817-3.345 12.168l16.393 97.943z" fill="#fff5f5"/><path d="m354.88 211.225c-2.85-3.367-7.038-5.308-11.449-5.308h-174.863c-4.411 0-8.599 1.941-11.449 5.308s-4.074 7.817-3.345 12.168l16.393 97.943h171.666l16.393-97.943c.728-4.351-.496-8.801-3.346-12.168zm-120.956 73.664h-13.349c-8.284 0-15-6.716-15-15s6.716-15 15-15h13.349c8.284 0 15 6.716 15 15s-6.716 15-15 15zm57.501 0h-13.349c-8.284 0-15-6.716-15-15s6.716-15 15-15h13.349c8.284 0 15 6.716 15 15s-6.716 15-15 15z" fill="#00c7c7"/><path d="m358.226 223.393c.729-4.351-.495-8.801-3.345-12.168s-7.038-5.308-11.449-5.308h-87.432v115.419h85.833z" fill="#eee1dd"/><path d="m358.226 223.393c.729-4.351-.495-8.801-3.345-12.168s-7.038-5.308-11.449-5.308h-87.432v115.419h85.833zm-66.801 61.496h-13.349c-8.284 0-15-6.716-15-15s6.716-15 15-15h13.349c8.284 0 15 6.716 15 15s-6.716 15-15 15z" fill="#1cadb5"/></g><path d="m375.792 512h-239.584c-8.284 0-15-6.716-15-15s6.716-15 15-15h239.584c8.284 0 15 6.716 15 15s-6.716 15-15 15z" fill="#766e6e"/><path d="m375.792 482h-119.792v30h119.792c8.284 0 15-6.716 15-15s-6.716-15-15-15z" fill="#585252"/></g></svg>