<svg id="Layer_1" data-name="Layer 1" xmlns="http://www.w3.org/2000/svg" viewBox="0 0 956.88 269.84"><defs><style>.cls-1{fill:gray;}.cls-2{fill:#666;}.cls-3{fill:none;stroke:#666;stroke-miterlimit:10;stroke-width:0.71px;}</style></defs><rect class="cls-1" x="437.6" y="172.79" width="519.29" height="44.02"/><path class="cls-1" d="M956.89,8.34V172.79H437.6c38.94-4.47,82.21,2.79,115-21.17,14.32-10.48,37.7-38.87,58.17-44.73,33.2-9.5,42.1-37.83,68-60.28,9.15-7.93,22.33-24,33.08-28.87,24.94-11.22,35.86-11.17,61.26-1.33s51.32,22,78.09,19.29c18.24-1.82,35.28-10.42,52.76-16.53C929.9,10.09,929.73,6.33,956.89,8.34Z"/><polygon class="cls-2" points="956.89 213.66 956.89 269.84 0 269.84 0 213.66 796.68 213.66 797.21 213.66 956.89 213.66"/><path class="cls-2" d="M796.68,213.66H0V12c19.13,9.08,25.22,5.16,45.31-.76,19-5.59,40.24-17.46,56.7-5.48,6.41,4.66,10.65,12.25,16.61,17.61,21.51,19.38,53.17,3.06,80.73,5.46,22.34,1.94,42.18,16.73,58.76,33.58s31.16,36.27,49.35,50.91c40.84,32.85,94.26,37.57,140.42,59.94,21.26,10.3,42.24,24.72,65.4,24.08,28.84-.81,53-24.68,81-32.39C663.3,146,721.05,213.66,796.68,213.66Z"/><path class="cls-3" d="M0,12c19.13,9.08,25.22,5.16,45.31-.76,19-5.59,40.24-17.46,56.7-5.48,6.41,4.66,10.65,12.25,16.61,17.61,21.51,19.38,53.17,3.06,80.73,5.46,22.34,1.94,42.18,16.73,58.76,33.58s31.16,36.27,49.35,50.91c40.84,32.85,94.26,37.57,140.42,59.94,21.26,10.3,42.24,24.72,65.4,24.08,28.84-.81,53-24.68,81-32.39,69.07-19,126.82,48.7,202.45,48.7"/><polygon class="cls-3" points="797.21 213.66 956.89 213.66 956.89 269.84 0 269.84 0 213.66 796.68 213.66 797.21 213.66"/><line class="cls-3" y1="12.01" y2="213.36"/></svg>