<svg id="Layer_1" data-name="Layer 1" xmlns="http://www.w3.org/2000/svg" viewBox="0 0 153.86 760.77"><defs><style>.cls-1{fill:none;stroke-width:9.84px;}.cls-1,.cls-2{stroke:#999;}.cls-1,.cls-2,.cls-3{stroke-miterlimit:10;}.cls-2{fill:#999;stroke-width:1.23px;}.cls-3{fill:#fff;stroke:#000;}</style></defs><path class="cls-1" d="M77.8-.15V61" transform="translate(-0.88 0.15)"/><path class="cls-2" d="M1.62,129.71l18.9,100.73H135.07L154,129.71Z" transform="translate(-0.88 0.15)"/><path class="cls-2" d="M1.62,230.44l18.9,100.74H135.07L154,230.44Z" transform="translate(-0.88 0.15)"/><path class="cls-2" d="M1.62,431.91l18.9,100.74H135.07L154,431.91Z" transform="translate(-0.88 0.15)"/><path class="cls-2" d="M1.62,532.65,20.52,633.4H135.07L154,532.65Z" transform="translate(-0.88 0.15)"/><path class="cls-2" d="M150.71,759.54,4.05,760,20.52,633.4H135.07Z" transform="translate(-0.88 0.15)"/><path class="cls-2" d="M1.62,331.18l18.9,100.73H135.07L154,331.18Z" transform="translate(-0.88 0.15)"/><path class="cls-2" d="M95.38,102.16H60.22l-5.81,27.55h46.77Z" transform="translate(-0.88 0.15)"/><path class="cls-2" d="M95.32,61h-35v40.8h35Z" transform="translate(-0.88 0.15)"/><path class="cls-3" d="M68,694" transform="translate(-0.88 0.15)"/></svg>