<svg width="506" height="355" viewBox="0 0 506 355" fill="none" xmlns="http://www.w3.org/2000/svg">
<path d="M170.52 133.39H9.42999V144.27H170.52V133.39Z" fill="#FAFAFA" stroke="#F0F0F0" stroke-width="0.13" stroke-miterlimit="10"/>
<path d="M141.32 92.79H38.63V133.39H141.32V92.79Z" fill="#FAFAFA" stroke="#F0F0F0" stroke-width="0.13" stroke-miterlimit="10"/>
<path d="M149.39 85.12V92.79H30.57V84.37" fill="#E4E4E4"/>
<path d="M149.39 85.12V92.79H30.57V84.37" stroke="#F0F0F0" stroke-width="0.13" stroke-miterlimit="10"/>
<path d="M44.52 294.24H12.04V327.78H44.52V294.24Z" fill="#E4E4E4" stroke="#F0F0F0" stroke-width="0.13" stroke-miterlimit="10"/>
<path d="M151.26 267.86C151.26 268.52 151.26 268.86 151.26 268.86V294.22H138.26V266.91C138.26 266.91 140.13 206.42 89.95 206.42C39.77 206.42 41.65 265.67 41.65 265.67V294.24H28.65V267.35C28.65 267.35 28.65 267 28.65 266.35C28.65 257.58 30.7 194.26 89.92 194.26C149.14 194.26 151.26 258.9 151.26 267.86Z" fill="#FAFAFA" stroke="#F0F0F0" stroke-width="0.13" stroke-miterlimit="10"/>
<path d="M28.7 144.27H15.93V294.24H28.7V144.27Z" fill="#FAFAFA" stroke="#F0F0F0" stroke-width="0.13" stroke-miterlimit="10"/>
<path d="M151.26 144.27V267.86C151.26 258.86 149.2 194.25 89.97 194.25C30.74 194.25 28.7 257.57 28.7 266.34V144.27H151.26Z" fill="#DFDFDF" stroke="#F0F0F0" stroke-width="0.13" stroke-miterlimit="10"/>
<path d="M164 144.27V294.27H138.28V266.91C138.28 266.91 140.15 206.42 89.97 206.42C39.79 206.42 41.67 265.67 41.67 265.67V294.24H28.67V266.34C28.67 257.57 30.72 194.25 89.94 194.25C149.16 194.25 151.23 258.9 151.23 267.86V144.27H164Z" fill="#FAFAFA" stroke="#F0F0F0" stroke-width="0.13" stroke-miterlimit="10"/>
<path d="M151.26 294.24V267.86" stroke="#F0F0F0" stroke-width="0.13" stroke-miterlimit="10"/>
<path d="M145.69 37.66C146.11 36.6 147.2 36.66 147.55 37.78C149.05 42.5 153.28 52.43 164.55 63.63L178.81 77.79C178.976 77.973 179.101 78.189 179.178 78.4239C179.254 78.6588 179.28 78.9072 179.253 79.1528C179.227 79.3984 179.149 79.6356 179.024 79.8488C178.9 80.0621 178.731 80.2465 178.53 80.39C173.73 82.47 156.02 86.67 91.23 86.67C83.13 86.67 75.03 86.5966 66.93 86.45C60.4 86.32 53.87 86.13 47.34 85.84C41.83 85.6 36.34 85.29 30.81 84.84C24.02 84.3 17.22 83.6799 10.46 82.4899C7.4361 82.0507 4.46432 81.3069 1.58999 80.2699V80.2699C1.38173 80.1319 1.20586 79.9503 1.07447 79.7377C0.943088 79.5252 0.859309 79.2867 0.828899 79.0387C0.79849 78.7906 0.822166 78.539 0.898312 78.3009C0.974458 78.0629 1.10127 77.8443 1.27 77.66L15.42 63.6099C26.9 52.2099 31.08 42.1299 32.5 37.5099C32.83 36.4399 33.87 36.33 34.32 37.3L36.69 42.38C36.7554 42.5625 36.8725 42.722 37.027 42.8392C37.1814 42.9564 37.3666 43.0261 37.56 43.0399H142.96C143.169 43.0191 143.367 42.9367 143.529 42.8032C143.691 42.6697 143.81 42.491 143.87 42.2899L145.69 37.66Z" fill="#3B3B3B"/>
<path d="M180.29 79.0701C180.29 79.0701 145.96 81.9201 91.1 81.9201C36.24 81.9201 -0.330002 79.0701 -0.330002 79.0701" fill="#3B3B3B"/>
<path d="M135.59 100.86H44.37V125.33H135.59V100.86Z" fill="#E4E4E4" stroke="#F0F0F0" stroke-width="0.13" stroke-miterlimit="10"/>
<path d="M151.26 144.27H28.7V153.56H151.26V144.27Z" fill="#E4E4E4" stroke="#F0F0F0" stroke-width="0.13" stroke-miterlimit="10"/>
<path d="M151.26 184.96H28.7V194.25H151.26V184.96Z" fill="#E4E4E4" stroke="#F0F0F0" stroke-width="0.13" stroke-miterlimit="10"/>
<path d="M47.13 327.78H9.42999V338.78H47.13V327.78Z" fill="#FAFAFA" stroke="#F0F0F0" stroke-width="0.13" stroke-miterlimit="10"/>
<path d="M47.13 294.24H9.42999V305.24H47.13V294.24Z" fill="#FAFAFA" stroke="#F0F0F0" stroke-width="0.13" stroke-miterlimit="10"/>
<path d="M167.5 292.54H135.02V326.08H167.5V292.54Z" fill="#E4E4E4" stroke="#F0F0F0" stroke-width="0.13" stroke-miterlimit="10"/>
<path d="M170.11 326.08H132.41V337.08H170.11V326.08Z" fill="#FAFAFA" stroke="#F0F0F0" stroke-width="0.13" stroke-miterlimit="10"/>
<path d="M170.11 292.54H132.41V303.54H170.11V292.54Z" fill="#FAFAFA" stroke="#F0F0F0" stroke-width="0.13" stroke-miterlimit="10"/>
<path d="M497.06 138.9H335.97V149.78H497.06V138.9Z" fill="#FAFAFA" stroke="#F0F0F0" stroke-width="0.13" stroke-miterlimit="10"/>
<path d="M467.86 98.3H365.17V138.9H467.86V98.3Z" fill="#FAFAFA" stroke="#F0F0F0" stroke-width="0.13" stroke-miterlimit="10"/>
<path d="M475.93 90.63V98.3H357.11V89.87" fill="#E4E4E4"/>
<path d="M475.93 90.63V98.3H357.11V89.87" stroke="#F0F0F0" stroke-width="0.13" stroke-miterlimit="10"/>
<path d="M371.06 299.75H338.58V333.29H371.06V299.75Z" fill="#E4E4E4" stroke="#F0F0F0" stroke-width="0.13" stroke-miterlimit="10"/>
<path d="M477.8 273.36C477.8 274.03 477.8 274.36 477.8 274.36V299.72H464.8V272.41C464.8 272.41 466.67 211.93 416.49 211.93C366.31 211.93 368.19 271.17 368.19 271.17V299.75H355.19V272.86C355.19 272.86 355.19 272.5 355.19 271.86C355.19 263.09 357.24 199.77 416.46 199.77C475.68 199.77 477.8 264.41 477.8 273.36Z" fill="#FAFAFA" stroke="#F0F0F0" stroke-width="0.13" stroke-miterlimit="10"/>
<path d="M355.24 149.78H342.47V299.75H355.24V149.78Z" fill="#FAFAFA" stroke="#F0F0F0" stroke-width="0.13" stroke-miterlimit="10"/>
<path d="M477.8 149.78V273.36C477.8 264.41 475.74 199.76 416.51 199.76C357.28 199.76 355.24 263.08 355.24 271.85V149.78H477.8Z" fill="#DFDFDF" stroke="#F0F0F0" stroke-width="0.13" stroke-miterlimit="10"/>
<path d="M490.56 149.78V299.78H464.82V272.41C464.82 272.41 466.69 211.93 416.51 211.93C366.33 211.93 368.21 271.17 368.21 271.17V299.75H355.21V271.85C355.21 263.08 357.26 199.76 416.48 199.76C475.7 199.76 477.77 264.41 477.77 273.36V149.78H490.56Z" fill="#FAFAFA" stroke="#F0F0F0" stroke-width="0.13" stroke-miterlimit="10"/>
<path d="M477.8 299.75V273.36" stroke="#F0F0F0" stroke-width="0.13" stroke-miterlimit="10"/>
<path d="M472.23 43.1601C472.65 42.1601 473.74 42.1601 474.09 43.2901C475.59 48.0101 479.82 57.9401 491.09 69.1301L505.36 83.3C505.524 83.4835 505.647 83.6995 505.722 83.9338C505.796 84.1681 505.821 84.4155 505.793 84.6598C505.766 84.9042 505.687 85.14 505.563 85.352C505.438 85.564 505.27 85.7473 505.07 85.8901C500.27 87.9701 482.56 92.1801 417.77 92.1801C409.67 92.1801 401.57 92.1067 393.47 91.9601C386.94 91.8301 380.41 91.6401 373.88 91.3501C368.37 91.1101 362.88 90.8001 357.35 90.3501C350.56 89.8101 343.76 89.1901 337 87.9901C333.975 87.559 331.003 86.8184 328.13 85.7801V85.7801C327.922 85.642 327.746 85.4604 327.614 85.2478C327.483 85.0353 327.399 84.7968 327.369 84.5488C327.338 84.3007 327.362 84.0491 327.438 83.8111C327.514 83.5731 327.641 83.3544 327.81 83.1701L341.96 69.11C353.42 57.74 357.6 47.6601 359 43.0001C359.33 41.9301 360.37 41.8101 360.82 42.7901L363.19 47.8701C363.255 48.0526 363.372 48.2121 363.527 48.3293C363.681 48.4465 363.867 48.5162 364.06 48.5301H469.46C469.669 48.5092 469.867 48.4268 470.029 48.2933C470.191 48.1598 470.31 47.9811 470.37 47.7801L472.23 43.1601Z" fill="#3B3B3B"/>
<path d="M506.83 84.58C506.83 84.58 472.5 87.43 417.64 87.43C362.78 87.43 326.21 84.58 326.21 84.58" fill="#3B3B3B"/>
<path d="M462.13 106.37H370.91V130.84H462.13V106.37Z" fill="#E4E4E4" stroke="#F0F0F0" stroke-width="0.13" stroke-miterlimit="10"/>
<path d="M477.8 149.78H355.24V159.07H477.8V149.78Z" fill="#E4E4E4" stroke="#F0F0F0" stroke-width="0.13" stroke-miterlimit="10"/>
<path d="M477.8 190.47H355.24V199.76H477.8V190.47Z" fill="#E4E4E4" stroke="#F0F0F0" stroke-width="0.13" stroke-miterlimit="10"/>
<path d="M373.67 333.29H335.97V344.29H373.67V333.29Z" fill="#FAFAFA" stroke="#F0F0F0" stroke-width="0.13" stroke-miterlimit="10"/>
<path d="M373.67 299.75H335.97V310.75H373.67V299.75Z" fill="#FAFAFA" stroke="#F0F0F0" stroke-width="0.13" stroke-miterlimit="10"/>
<path d="M494.04 298.05H461.56V331.59H494.04V298.05Z" fill="#E4E4E4" stroke="#F0F0F0" stroke-width="0.13" stroke-miterlimit="10"/>
<path d="M496.65 331.59H458.95V342.59H496.65V331.59Z" fill="#FAFAFA" stroke="#F0F0F0" stroke-width="0.13" stroke-miterlimit="10"/>
<path d="M496.65 298.05H458.95V309.05H496.65V298.05Z" fill="#FAFAFA" stroke="#F0F0F0" stroke-width="0.13" stroke-miterlimit="10"/>
<path d="M352.6 113.7H151.43V126.43H352.6V113.7Z" fill="#FAFAFA" stroke="#F0F0F0" stroke-width="0.13" stroke-miterlimit="10"/>
<path d="M316.13 66.1899H187.89V113.69H316.13V66.1899Z" fill="#FAFAFA" stroke="#F0F0F0" stroke-width="0.13" stroke-miterlimit="10"/>
<path d="M326.21 57.22V66.19H177.82V56.33" fill="#E4E4E4"/>
<path d="M326.21 57.22V66.19H177.82V56.33" stroke="#F0F0F0" stroke-width="0.13" stroke-miterlimit="10"/>
<path d="M195.25 301.9H154.69V341.15H195.25V301.9Z" fill="#E4E4E4" stroke="#F0F0F0" stroke-width="0.13" stroke-miterlimit="10"/>
<path d="M328.54 271C328.54 271.78 328.54 272.2 328.54 272.2V301.9H312.34V269.9C312.34 269.9 314.67 199.12 252.01 199.12C189.35 199.12 191.69 268.44 191.69 268.44V301.9H175.5V270.43C175.5 270.43 175.5 270.02 175.5 269.26C175.5 258.99 178.06 184.9 252.02 184.9C325.98 184.9 328.54 260.55 328.54 271Z" fill="#FAFAFA" stroke="#F0F0F0" stroke-width="0.13" stroke-miterlimit="10"/>
<path d="M175.49 126.42H159.55V301.89H175.49V126.42Z" fill="#FAFAFA" stroke="#F0F0F0" stroke-width="0.13" stroke-miterlimit="10"/>
<path d="M328.54 126.42V271C328.54 260.52 325.98 184.87 252.01 184.87C178.04 184.87 175.49 259 175.49 269.26V126.42H328.54Z" fill="#DFDFDF" stroke="#F0F0F0" stroke-width="0.13" stroke-miterlimit="10"/>
<path d="M344.48 126.42V301.9H312.34V269.9C312.34 269.9 314.67 199.12 252.01 199.12C189.35 199.12 191.69 268.44 191.69 268.44V301.9H175.49V269.26C175.49 258.99 178.05 184.9 252.01 184.9C325.97 184.9 328.54 260.55 328.54 271.03V126.42H344.48Z" fill="#FAFAFA" stroke="#F0F0F0" stroke-width="0.13" stroke-miterlimit="10"/>
<path d="M328.54 301.9V271.03" stroke="#F0F0F0" stroke-width="0.13" stroke-miterlimit="10"/>
<path d="M321.59 1.68004C321.664 1.41928 321.825 1.19167 322.046 1.03488C322.268 0.878092 322.536 0.801538 322.806 0.817869C323.077 0.834199 323.334 0.942446 323.535 1.12469C323.735 1.30694 323.868 1.55226 323.91 1.82005C325.78 7.35005 331.06 18.9701 345.14 32.0701L363 48.64C363.193 48.8516 363.338 49.1021 363.426 49.3746C363.514 49.6472 363.542 49.9354 363.509 50.2199C363.476 50.5043 363.382 50.7783 363.234 51.0233C363.086 51.2683 362.887 51.4786 362.65 51.6401C356.65 54.0701 334.53 58.99 253.65 58.99C243.53 58.99 233.413 58.9034 223.3 58.7301C215.15 58.5801 207 58.36 198.84 58.02C191.96 57.74 185.077 57.36 178.19 56.88C169.71 56.25 161.19 55.52 152.79 54.13C149.019 53.6226 145.306 52.7553 141.7 51.5401V51.5401C141.45 51.3835 141.238 51.1736 141.079 50.9254C140.919 50.6772 140.817 50.3968 140.779 50.1044C140.74 49.8119 140.767 49.5146 140.857 49.2338C140.948 48.953 141.099 48.6956 141.3 48.48L158.97 32.04C173.3 18.7 178.53 6.91004 180.3 1.50004C180.334 1.23759 180.455 0.99414 180.644 0.80882C180.833 0.623501 181.079 0.507068 181.342 0.478223C181.605 0.449379 181.87 0.509799 182.094 0.649778C182.319 0.789757 182.49 1.00117 182.58 1.25004L185.53 7.20004C185.621 7.41757 185.772 7.60508 185.965 7.74121C186.157 7.87734 186.384 7.95662 186.62 7.97004H318.15C318.406 7.95334 318.651 7.86068 318.854 7.70393C319.057 7.54718 319.209 7.33345 319.29 7.09004L321.59 1.68004Z" fill="#3B3B3B"/>
<path d="M364.79 50.14C364.79 50.14 321.92 53.47 253.41 53.47C184.9 53.47 139.24 50.14 139.24 50.14" fill="#3B3B3B"/>
<path d="M308.98 75.63H195.06V104.26H308.98V75.63Z" fill="#E4E4E4" stroke="#F0F0F0" stroke-width="0.13" stroke-miterlimit="10"/>
<path d="M328.54 126.42H175.49V137.29H328.54V126.42Z" fill="#E4E4E4" stroke="#F0F0F0" stroke-width="0.13" stroke-miterlimit="10"/>
<path d="M328.54 174.04H175.49V184.91H328.54V174.04Z" fill="#E4E4E4" stroke="#F0F0F0" stroke-width="0.13" stroke-miterlimit="10"/>
<path d="M198.5 341.14H151.43V354.01H198.5V341.14Z" fill="#FAFAFA" stroke="#F0F0F0" stroke-width="0.13" stroke-miterlimit="10"/>
<path d="M198.5 301.9H151.43V314.77H198.5V301.9Z" fill="#FAFAFA" stroke="#F0F0F0" stroke-width="0.13" stroke-miterlimit="10"/>
<path d="M348.82 299.91H308.26V339.16H348.82V299.91Z" fill="#E4E4E4" stroke="#F0F0F0" stroke-width="0.13" stroke-miterlimit="10"/>
<path d="M352.07 339.16H305V352.03H352.07V339.16Z" fill="#FAFAFA" stroke="#F0F0F0" stroke-width="0.13" stroke-miterlimit="10"/>
<path d="M352.07 299.91H305V312.78H352.07V299.91Z" fill="#FAFAFA" stroke="#F0F0F0" stroke-width="0.13" stroke-miterlimit="10"/>
</svg>
