<svg id="Layer_1" data-name="Layer 1" xmlns="http://www.w3.org/2000/svg" viewBox="0 0 298.79 88.59"><path d="M98.13,8a1,1,0,0,1-.19,1.64,19.54,19.54,0,0,1-7.52,3,56.82,56.82,0,0,1-11.56.88q-6.92-.07-11.49-.37T54.68,12.08Q47,11.41,43.6,11.27a123.27,123.27,0,0,0-6.84,20.31,94.61,94.61,0,0,0-3.08,22.13A57.33,57.33,0,0,0,35.2,68.07q1.59,6.39,3.4,9.2c1.2,1.87,2.26,2.81,3.17,2.82.46-.07,1.06-.71,1.79-1.93a24.29,24.29,0,0,0,2-4.51q.93-2.39,2.36-7.05c1.1-3.57,2-6.19,2.65-7.84a9.23,9.23,0,0,1,2.26-3.57,1.47,1.47,0,0,1,2,0c.64.53.61,1.1-.08,1.69-.92.79-2.33,4.22-4.22,10.32-.79,2.44-1.38,4.3-1.77,5.56-.16.39-.31.79-.47,1.19A45.89,45.89,0,0,1,46,79.63a12.42,12.42,0,0,1-3,3.81,5.71,5.71,0,0,1-3.84,1.5q-5.49,0-9.64-8.71t-4-22.6q.2-18.83,9.8-42.44-14.3,1.05-22.84,8.94a24.6,24.6,0,0,0-7.88,21,.91.91,0,0,1-.29.89,1.37,1.37,0,0,1-1,.39H3.26A1.25,1.25,0,0,1,1.9,41.34a26.54,26.54,0,0,1,8.69-22.82q9.57-9,25.83-9.71,1-2.58,2-4.46A4.17,4.17,0,0,1,42.2,2.1,4.16,4.16,0,0,1,46,3.43a2.68,2.68,0,0,1,.09,3.09,17.18,17.18,0,0,0-1.28,2.37c2,.16,5.4.46,10.28.9,4.11.38,7.31.64,9.6.8s5.35.32,9.2.49a81.23,81.23,0,0,0,9.32,0,60,60,0,0,0,7.28-1,15.33,15.33,0,0,0,5.8-2.24A1.24,1.24,0,0,1,98.13,8Z"/><path d="M104,55.1c.8.41,1,.95.5,1.6l-.81,1.19A126,126,0,0,1,94,70.55a.26.26,0,0,0-.12.19l-.23.1c0,.07,0,.1-.11.1Q87.77,77.06,83.32,77A8.23,8.23,0,0,1,76.71,74q-2.47-3.1-3-9.29a38.4,38.4,0,0,1-2.22,4.16q-5.11,8-12,8a9.39,9.39,0,0,1-6.78-3q-2.88-2.91-2.82-9,.07-8.07,6.38-14.78T69,43.4c3,0,5.26.69,6.85,2a1.92,1.92,0,0,1,.45.31h.11a2.34,2.34,0,0,1,1.22-1.44,5.23,5.23,0,0,1,2.06-.62,7.48,7.48,0,0,1,2.12.12,4.07,4.07,0,0,1,2.44,1.62,3,3,0,0,1,.26,2.89,62.16,62.16,0,0,0-1.91,8.35,38.33,38.33,0,0,0-.44,8.86q.3,4.38,2,6.29A3.84,3.84,0,0,0,87.25,73c.68-.19,2.14-1.41,4.38-3.64l.11-.2h.12a108.9,108.9,0,0,0,9.39-12.46l.81-1.19A1.33,1.33,0,0,1,104,55.1Zm-30,2.4a54.08,54.08,0,0,1,1.46-8.86,7.11,7.11,0,0,0-.45-.7,8.44,8.44,0,0,0-.79-.8,4.06,4.06,0,0,0-2.4-.13c-3,.71-5.92,2.88-8.81,6.54A19.41,19.41,0,0,0,58.5,65.71a10.34,10.34,0,0,0,1.14,5.44c.79,1.3,1.6,2,2.44,2a5.87,5.87,0,0,0,3.68-1.61,15.63,15.63,0,0,0,3.35-3.9v-.1a53.43,53.43,0,0,0,4.55-9.42,1.27,1.27,0,0,1,.06-.3A.62.62,0,0,1,73.9,57.5Z"/><path d="M130.37,55.37c.79.4,1,.94.5,1.6l-.82,1.18a133,133,0,0,1-9.61,12.66.26.26,0,0,0-.12.2l-.23.09-.12.1q-5.77,6.12-10.24,6.08a8.26,8.26,0,0,1-6.6-3.06q-2.49-3.1-2.88-9.09a47.27,47.27,0,0,1,.45-11,43.32,43.32,0,0,1,2-8.15A3.22,3.22,0,0,1,105,44.06a6.13,6.13,0,0,1,3.26-.07,4.18,4.18,0,0,1,2.45,1.62,3.05,3.05,0,0,1,.26,2.89A63.7,63.7,0,0,0,109,56.85a38.34,38.34,0,0,0-.43,8.86c.2,2.93.87,5,2,6.29a4,4,0,0,0,3.07,1.23c.69-.19,2.15-1.41,4.39-3.64l.11-.2a116.27,116.27,0,0,0,9.5-12.45l.82-1.19A1.32,1.32,0,0,1,130.37,55.37ZM113,39.51a8.42,8.42,0,0,1-3.83,0,8.07,8.07,0,0,1-3.42-1.53c-.87-.71-1.2-1.41-1-2.1s.85-1.19,2-1.48a8.79,8.79,0,0,1,3.83,0A7.45,7.45,0,0,1,114,35.88c.87.74,1.2,1.46,1,2.15S114.12,39.22,113,39.51Z"/><path d="M199,56.2a1,1,0,0,1,0,1.74,80.51,80.51,0,0,1-10.6,8.21,16.63,16.63,0,0,1-9.06,2.65h-.69a78,78,0,0,1-3.52,8.48,42.94,42.94,0,0,1-2.91,5.2,10.82,10.82,0,0,1-2.42,2.61,5.47,5.47,0,0,1-1.79,1,4.77,4.77,0,0,1-1.09.09A8.82,8.82,0,0,1,160,82.56a25.74,25.74,0,0,1-4.64-10.46,67.12,67.12,0,0,1-1.75-13.91,87.34,87.34,0,0,1-4.8,11.51.26.26,0,0,1-.12.19v.2q-4.08,7.53-8.19,7.49a10.42,10.42,0,0,1-8.31-4.27,21.34,21.34,0,0,1-3.54-6.6,35.58,35.58,0,0,1-1.81-7.89,44.7,44.7,0,0,1-.21-7.33,16.13,16.13,0,0,1,1-5.31,2.77,2.77,0,0,1,1.67-1.78,4.33,4.33,0,0,1,2.75-.27,3.73,3.73,0,0,1,2.27,1.46,4.05,4.05,0,0,1,.6,3,35.28,35.28,0,0,0,.28,12.4q1.25,6.84,4.19,10a6.13,6.13,0,0,0,3.87,1.83c.69-.33,1.69-1.64,3-4,.31-.66.62-1.28.93-1.88q2.34-5.16,6-16.28c.63-1.85,1.06-3.11,1.3-3.77a1.42,1.42,0,0,1,.12-.5c0-.06,0-.09.11-.09a2.85,2.85,0,0,1,1.73-1.68,5.13,5.13,0,0,1,2.64-.27,3.86,3.86,0,0,1,2.27,1.51,3.61,3.61,0,0,1,.54,3q-1.09,6.66.46,17.43t4.72,14a2.23,2.23,0,0,0,1.59.91c.84,0,2-1.34,3.59-4a83.28,83.28,0,0,0,3.75-9.13l.11-.19a5,5,0,0,1-1.36-1.31q-2.6-3.12-2.82-9.74a27.8,27.8,0,0,1,1.78-11.49C175,41.77,176.9,40,179.41,40a4.76,4.76,0,0,1,3.2,1.12,5.75,5.75,0,0,1,1.66,4.6q-.06,6.59-4.78,20.67a12.63,12.63,0,0,0,4.13-.65A17.52,17.52,0,0,0,188,63.51q2.3-1.57,4.26-3.1c1.31-1,2.92-2.41,4.85-4.18A1.23,1.23,0,0,1,199,56.2Zm-22,9.09q4.48-13.5,4.54-19.57a3.71,3.71,0,0,0-.89-2.9,1.81,1.81,0,0,0-1.25-.41c-1.14,0-2.15,1.21-3,3.65a27.28,27.28,0,0,0-1.65,10.79q.22,5.84,2.26,8.34Z"/><path d="M247.13,56.53c.8.41,1,.94.5,1.6l-.81,1.18A126,126,0,0,1,237.2,72a.26.26,0,0,0-.12.2l-.23.09c0,.07,0,.1-.11.1Q231,78.48,226.5,78.44a8.26,8.26,0,0,1-6.61-3.06q-2.47-3.1-3-9.29a37.49,37.49,0,0,1-2.22,4.16q-5.12,8-12,8a9.39,9.39,0,0,1-6.78-3q-2.88-2.91-2.82-9,.07-8.07,6.38-14.78t12.7-6.64c3,0,5.26.68,6.84,2a1.72,1.72,0,0,1,.46.3h.11a2.32,2.32,0,0,1,1.22-1.43,5.09,5.09,0,0,1,2.06-.63,7.48,7.48,0,0,1,2.12.12,4.16,4.16,0,0,1,2.44,1.62,3.05,3.05,0,0,1,.26,2.89A64.08,64.08,0,0,0,225.78,58a38.91,38.91,0,0,0-.43,8.86c.2,2.93.87,5,2,6.3a3.8,3.8,0,0,0,3.07,1.22q1-.28,4.39-3.64l.11-.2H235a108.59,108.59,0,0,0,9.39-12.45l.81-1.19A1.32,1.32,0,0,1,247.13,56.53Zm-30,2.39a53.77,53.77,0,0,1,1.46-8.85,6.09,6.09,0,0,0-.45-.7,7.45,7.45,0,0,0-.79-.81,4.07,4.07,0,0,0-2.4-.12q-4.47,1.05-8.82,6.54a19.43,19.43,0,0,0-4.4,12.15,10.32,10.32,0,0,0,1.14,5.44c.79,1.31,1.6,2,2.44,2a5.83,5.83,0,0,0,3.68-1.61,15.63,15.63,0,0,0,3.35-3.9v-.1a52.84,52.84,0,0,0,4.56-9.41,1.11,1.11,0,0,1,.06-.3A.72.72,0,0,1,217.08,58.92Z"/><path d="M296.82,56.92c.83.34,1.06.88.67,1.6-.08.2-.27.6-.58,1.19Q289.56,74.08,284,80.8a.27.27,0,0,0-.12.2,11.18,11.18,0,0,1-1.73,1.87l-.12.2q-4.15,4.25-7.7,4.21A6.11,6.11,0,0,1,270,85.64q-2.38-2.31-2.38-8.39a59.42,59.42,0,0,1,1.21-11.94c.17-1.39.29-2.45.37-3.18s.19-1.71.32-2.94.19-2.2.2-2.94,0-1.52,0-2.39a6.42,6.42,0,0,0-.26-2.09,2.89,2.89,0,0,0-.73-1.2,1,1,0,0,0-.8-.31c-1.76,0-3.52,1.46-5.31,4.43a1.35,1.35,0,0,1-.34.5Q257.76,63.41,256,77a1.5,1.5,0,0,1-1.16,1.48,3.92,3.92,0,0,1-1.26.19,7.49,7.49,0,0,1-3.54-1,6.79,6.79,0,0,1-2.72-2.61q-2.68-5-3-14c-.16-6,.45-10.55,1.86-13.73a2.93,2.93,0,0,1,2.13-1.87,6,6,0,0,1,3.26-.06A4.12,4.12,0,0,1,254.09,47a3.31,3.31,0,0,1,.37,2.9,38.82,38.82,0,0,0-.33,21.51,67.43,67.43,0,0,1,4.14-14.1c.08,0,.12,0,.12-.1a25.41,25.41,0,0,1,2.33-4.36.29.29,0,0,1,.11-.2q4.77-7.43,10.48-7.37a6.52,6.52,0,0,1,4.9,1.94c1.14,1.21,1.82,3.09,2.06,5.65a29.52,29.52,0,0,1-.06,6.88q-.43,3-1.41,8.8-.6,3-.84,4.62c-.17,1.09-.33,2.44-.5,4a18.6,18.6,0,0,0-.1,3.78,3.08,3.08,0,0,0,.84,2,.92.92,0,0,0,.8.31c.69,0,1.68-.61,3-1.86.62-.66,1.27-1.38,2-2.17v-.1l.11-.1q5.44-6.72,12.33-20.3c.23-.53.43-1,.58-1.29A1.3,1.3,0,0,1,296.82,56.92Z"/></svg>