<svg id="Layer_1" data-name="Layer 1" xmlns="http://www.w3.org/2000/svg" viewBox="0 0 154.68 32.48"><path d="M18.17,4.48h-6V32H6.87V4.48h-6V.94H18.17Z"/><path d="M21.7,16.41q0-10.12,2.51-13.1c1.67-2,4.43-3,8.26-3q6.59,0,8.75,3.33t2.17,12q0,7.76-1,10.76a7.57,7.57,0,0,1-3.35,4.41,12.61,12.61,0,0,1-6.48,1.42,13,13,0,0,1-6.46-1.31A7.81,7.81,0,0,1,22.8,26.7Q21.71,23.78,21.7,16.41Zm16.16.24q0-8.85-1.32-10.94a4.32,4.32,0,0,0-3.93-2.08,4.22,4.22,0,0,0-4.23,2.5q-1.14,2.49-1.14,8.42v1.71a36,36,0,0,0,.93,9.65c.61,2,2.1,3,4.44,3a4.84,4.84,0,0,0,3.7-1.7q1.55-1.71,1.55-9.44Z"/><path d="M69.45,24.69q0,7.8-8.8,7.79Q51,32.48,51,24.74V1h5.23V23A10.85,10.85,0,0,0,57,27.88c.51.9,1.63,1.36,3.36,1.36s2.79-.48,3.23-1.43a13.74,13.74,0,0,0,.64-5.07V1h5.23Z"/><path d="M94.4,32H88.91l-6.14-14.6h-.46V32H77V.94h7.32q9,0,9,8A9.19,9.19,0,0,1,92,14.34a8,8,0,0,1-4.3,2.76ZM82.31,14.59a7.26,7.26,0,0,0,4.45-1.16c.91-.74,1.37-2.09,1.37-4a5.41,5.41,0,0,0-1.25-4c-.83-.79-2.25-1.19-4.26-1.19h-.31Z"/><path d="M111.33,16.41q0-10.12,2.5-13.1c1.67-2,4.43-3,8.26-3q6.59,0,8.76,3.33t2.17,12c0,5.17-.33,8.76-1,10.76a7.62,7.62,0,0,1-3.36,4.41,12.59,12.59,0,0,1-6.47,1.42,13,13,0,0,1-6.46-1.31,7.82,7.82,0,0,1-3.34-4.23Q111.32,23.78,111.33,16.41Zm16.15.24q0-8.85-1.31-10.94a4.35,4.35,0,0,0-3.94-2.08A4.23,4.23,0,0,0,118,6.13q-1.14,2.49-1.14,8.42v1.71a36,36,0,0,0,.93,9.65q.93,3,4.44,3a4.82,4.82,0,0,0,3.7-1.7q1.54-1.71,1.55-9.44Z"/><path d="M154.68,4.48h-9v9.81h8.06v3.54h-8.06V32h-5.23V.94h14.25Z"/></svg>