<svg id="Capa_1" enable-background="new 0 0 512 512" height="512" viewBox="0 0 512 512" width="512" xmlns="http://www.w3.org/2000/svg"><g><path d="m94.398 21.005c-11.191-12.855-27.656-21.005-46-21.005v30c17.094 0 31 13.907 31 31h30c0-17.093 13.906-31 31-31v-30c-18.343 0-34.808 8.15-46 21.005z" fill="#725d57"/><path d="m94.398 21.005v39.995h15c0-17.093 13.906-31 31-31v-30c-18.343 0-34.808 8.15-46 21.005z" fill="#53433f"/><path d="m417.602 21.005c-11.192-12.855-27.657-21.005-46-21.005v30c17.094 0 31 13.907 31 31h30c0-17.093 13.906-31 31-31v-30c-18.344 0-34.809 8.15-46 21.005z" fill="#725d57"/><path d="m417.602 21.005v39.995h15c0-17.093 13.906-31 31-31v-30c-18.344 0-34.809 8.15-46 21.005z" fill="#53433f"/><path d="m417.639 291.037h-417.639v-34.952l107.258-130.978h87.645l39.253-47.487h21.872 21.222l140.389 178.635z" fill="#bdf052"/><path d="m417.639 256.255-140.389-178.635h-21.25v213.417h161.639z" fill="#7d0"/><path d="m512 291.037h-269.813v-33.446l109.993-134.316h49.828l109.992 134.316z" fill="#1fbf66"/><path d="m512 240.703c-32.002 0-32.002 21.245-64.004 21.245s-32.002-21.245-64.004-21.245c-32.001 0-32.001 21.245-64.001 21.245s-32-21.245-63.999-21.245c-31.998 0-31.998 21.245-63.996 21.245-31.999 0-31.999-21.245-63.999-21.245s-32 21.245-63.999 21.245c-31.998 0-31.998-21.245-63.997-21.245v116.901h512v-116.901z" fill="#bcf7fc"/><path d="m512 240.703c-32.002 0-32.002 21.245-64.004 21.245s-32.002-21.245-64.004-21.245c-32.001 0-32.001 21.245-64.001 21.245-31.997 0-32-21.241-63.991-21.245v116.901h256z" fill="#8adefd"/><path d="m512 317.901c-32.002 0-32.002 21.245-64.004 21.245s-32.002-21.245-64.004-21.245c-32.001 0-32.001 21.245-64.001 21.245s-32-21.245-63.999-21.245c-31.998 0-31.998 21.245-63.996 21.245-31.999 0-31.999-21.245-63.999-21.245s-32 21.245-63.999 21.245c-31.998 0-31.998-21.245-63.997-21.245v116.901h512v-116.901z" fill="#8adefd"/><path d="m512 317.901c-32.002 0-32.002 21.245-64.004 21.245s-32.002-21.245-64.004-21.245c-32.001 0-32.001 21.245-64.001 21.245-31.997 0-32-21.241-63.991-21.245v116.901h256z" fill="#50c5ff"/><path d="m512 395.099c-32.002 0-32.002 21.245-64.004 21.245s-32.002-21.245-64.004-21.245c-32.001 0-32.001 21.245-64.001 21.245s-32-21.245-63.999-21.245c-31.998 0-31.998 21.245-63.996 21.245-31.999 0-31.999-21.245-63.999-21.245s-32 21.245-63.999 21.245c-31.998 0-31.998-21.245-63.997-21.245v116.901h512v-116.901z" fill="#50c5ff"/><path d="m512 395.099c-32.002 0-32.002 21.245-64.004 21.245s-32.002-21.245-64.004-21.245c-32.001 0-32.001 21.245-64.001 21.245-31.997 0-32-21.241-63.991-21.245v116.901h256z" fill="#4889ff"/></g><path d="m105.897 187.236h38.625l50.383-62.129h-38.626z" fill="#7d0"/></svg>