<svg xmlns="http://www.w3.org/2000/svg" height="611pt" version="1.1" viewBox="-132 1 611 611.99998" width="611pt">
<g id="surface1">
<path d="M 112.699219 71.398438 L 235.101562 71.398438 L 235.101562 112.199219 L 112.699219 112.199219 Z M 112.699219 71.398438 " style=" stroke:none;fill-rule:nonzero;fill:rgb(96.078431%,44.313725%,21.960784%);fill-opacity:1;" />
<path d="M 194.300781 71.398438 L 235.101562 71.398438 L 235.101562 112.199219 L 194.300781 112.199219 Z M 194.300781 71.398438 " style=" stroke:none;fill-rule:nonzero;fill:rgb(92.941176%,35.686275%,10.980392%);fill-opacity:1;" />
<path d="M 92.300781 479.398438 L 255.5 479.398438 L 255.5 520.199219 L 92.300781 520.199219 Z M 92.300781 479.398438 " style=" stroke:none;fill-rule:nonzero;fill:rgb(96.078431%,44.313725%,21.960784%);fill-opacity:1;" />
<path d="M 92.300781 397.800781 L 255.5 397.800781 L 255.5 438.601562 L 92.300781 438.601562 Z M 92.300781 397.800781 " style=" stroke:none;fill-rule:nonzero;fill:rgb(96.078431%,44.313725%,21.960784%);fill-opacity:1;" />
<path d="M 92.300781 316.199219 L 255.5 316.199219 L 255.5 357 L 92.300781 357 Z M 92.300781 316.199219 " style=" stroke:none;fill-rule:nonzero;fill:rgb(96.078431%,44.313725%,21.960784%);fill-opacity:1;" />
<path d="M 92.300781 234.601562 L 255.5 234.601562 L 255.5 275.398438 L 92.300781 275.398438 Z M 92.300781 234.601562 " style=" stroke:none;fill-rule:nonzero;fill:rgb(96.078431%,44.313725%,21.960784%);fill-opacity:1;" />
<path d="M 92.300781 153 L 255.5 153 L 255.5 193.800781 L 92.300781 193.800781 Z M 92.300781 153 " style=" stroke:none;fill-rule:nonzero;fill:rgb(96.078431%,44.313725%,21.960784%);fill-opacity:1;" />
<path d="M 51.5 561 L 296.300781 561 L 296.300781 601.800781 L 51.5 601.800781 Z M 51.5 561 " style=" stroke:none;fill-rule:nonzero;fill:rgb(96.078431%,44.313725%,21.960784%);fill-opacity:1;" />
<path d="M 204.5 153 L 255.5 153 L 255.5 193.800781 L 204.5 193.800781 Z M 204.5 153 " style=" stroke:none;fill-rule:nonzero;fill:rgb(92.941176%,35.686275%,10.980392%);fill-opacity:1;" />
<path d="M 204.5 234.601562 L 255.5 234.601562 L 255.5 275.398438 L 204.5 275.398438 Z M 204.5 234.601562 " style=" stroke:none;fill-rule:nonzero;fill:rgb(92.941176%,35.686275%,10.980392%);fill-opacity:1;" />
<path d="M 204.5 316.199219 L 255.5 316.199219 L 255.5 357 L 204.5 357 Z M 204.5 316.199219 " style=" stroke:none;fill-rule:nonzero;fill:rgb(92.941176%,35.686275%,10.980392%);fill-opacity:1;" />
<path d="M 204.5 397.800781 L 255.5 397.800781 L 255.5 438.601562 L 204.5 438.601562 Z M 204.5 397.800781 " style=" stroke:none;fill-rule:nonzero;fill:rgb(92.941176%,35.686275%,10.980392%);fill-opacity:1;" />
<path d="M 204.5 479.398438 L 255.5 479.398438 L 255.5 520.199219 L 204.5 520.199219 Z M 204.5 479.398438 " style=" stroke:none;fill-rule:nonzero;fill:rgb(92.941176%,35.686275%,10.980392%);fill-opacity:1;" />
<path d="M 204.5 561 L 296.300781 561 L 296.300781 601.800781 L 204.5 601.800781 Z M 204.5 561 " style=" stroke:none;fill-rule:nonzero;fill:rgb(92.941176%,35.686275%,10.980392%);fill-opacity:1;" />
<path d="M 143.300781 71.398438 L 163.699219 71.398438 L 163.699219 112.199219 L 143.300781 112.199219 Z M 143.300781 71.398438 " style=" stroke:none;fill-rule:nonzero;fill:rgb(52.156863%,34.117647%,22.352941%);fill-opacity:1;" />
<path d="M 184.101562 71.398438 L 204.5 71.398438 L 204.5 112.199219 L 184.101562 112.199219 Z M 184.101562 71.398438 " style=" stroke:none;fill-rule:nonzero;fill:rgb(52.156863%,34.117647%,22.352941%);fill-opacity:1;" />
<path d="M 163.699219 479.398438 L 184.101562 479.398438 L 184.101562 520.199219 L 163.699219 520.199219 Z M 163.699219 479.398438 " style=" stroke:none;fill-rule:nonzero;fill:rgb(52.156863%,34.117647%,22.352941%);fill-opacity:1;" />
<path d="M 122.898438 479.398438 L 143.300781 479.398438 L 143.300781 520.199219 L 122.898438 520.199219 Z M 122.898438 479.398438 " style=" stroke:none;fill-rule:nonzero;fill:rgb(52.156863%,34.117647%,22.352941%);fill-opacity:1;" />
<path d="M 204.5 479.398438 L 224.898438 479.398438 L 224.898438 520.199219 L 204.5 520.199219 Z M 204.5 479.398438 " style=" stroke:none;fill-rule:nonzero;fill:rgb(52.156863%,34.117647%,22.352941%);fill-opacity:1;" />
<path d="M 163.699219 397.800781 L 184.101562 397.800781 L 184.101562 438.601562 L 163.699219 438.601562 Z M 163.699219 397.800781 " style=" stroke:none;fill-rule:nonzero;fill:rgb(52.156863%,34.117647%,22.352941%);fill-opacity:1;" />
<path d="M 122.898438 397.800781 L 143.300781 397.800781 L 143.300781 438.601562 L 122.898438 438.601562 Z M 122.898438 397.800781 " style=" stroke:none;fill-rule:nonzero;fill:rgb(52.156863%,34.117647%,22.352941%);fill-opacity:1;" />
<path d="M 204.5 397.800781 L 224.898438 397.800781 L 224.898438 438.601562 L 204.5 438.601562 Z M 204.5 397.800781 " style=" stroke:none;fill-rule:nonzero;fill:rgb(52.156863%,34.117647%,22.352941%);fill-opacity:1;" />
<path d="M 163.699219 316.199219 L 184.101562 316.199219 L 184.101562 357 L 163.699219 357 Z M 163.699219 316.199219 " style=" stroke:none;fill-rule:nonzero;fill:rgb(52.156863%,34.117647%,22.352941%);fill-opacity:1;" />
<path d="M 122.898438 316.199219 L 143.300781 316.199219 L 143.300781 357 L 122.898438 357 Z M 122.898438 316.199219 " style=" stroke:none;fill-rule:nonzero;fill:rgb(52.156863%,34.117647%,22.352941%);fill-opacity:1;" />
<path d="M 204.5 316.199219 L 224.898438 316.199219 L 224.898438 357 L 204.5 357 Z M 204.5 316.199219 " style=" stroke:none;fill-rule:nonzero;fill:rgb(52.156863%,34.117647%,22.352941%);fill-opacity:1;" />
<path d="M 163.699219 234.601562 L 184.101562 234.601562 L 184.101562 275.398438 L 163.699219 275.398438 Z M 163.699219 234.601562 " style=" stroke:none;fill-rule:nonzero;fill:rgb(52.156863%,34.117647%,22.352941%);fill-opacity:1;" />
<path d="M 122.898438 234.601562 L 143.300781 234.601562 L 143.300781 275.398438 L 122.898438 275.398438 Z M 122.898438 234.601562 " style=" stroke:none;fill-rule:nonzero;fill:rgb(52.156863%,34.117647%,22.352941%);fill-opacity:1;" />
<path d="M 204.5 234.601562 L 224.898438 234.601562 L 224.898438 275.398438 L 204.5 275.398438 Z M 204.5 234.601562 " style=" stroke:none;fill-rule:nonzero;fill:rgb(52.156863%,34.117647%,22.352941%);fill-opacity:1;" />
<path d="M 163.699219 153 L 184.101562 153 L 184.101562 193.800781 L 163.699219 193.800781 Z M 163.699219 153 " style=" stroke:none;fill-rule:nonzero;fill:rgb(52.156863%,34.117647%,22.352941%);fill-opacity:1;" />
<path d="M 122.898438 153 L 143.300781 153 L 143.300781 193.800781 L 122.898438 193.800781 Z M 122.898438 153 " style=" stroke:none;fill-rule:nonzero;fill:rgb(52.156863%,34.117647%,22.352941%);fill-opacity:1;" />
<path d="M 204.5 153 L 224.898438 153 L 224.898438 193.800781 L 204.5 193.800781 Z M 204.5 153 " style=" stroke:none;fill-rule:nonzero;fill:rgb(52.156863%,34.117647%,22.352941%);fill-opacity:1;" />
<path d="M 122.898438 561 L 143.300781 561 L 143.300781 601.800781 L 122.898438 601.800781 Z M 122.898438 561 " style=" stroke:none;fill-rule:nonzero;fill:rgb(52.156863%,34.117647%,22.352941%);fill-opacity:1;" />
<path d="M 163.699219 561 L 184.101562 561 L 184.101562 601.800781 L 163.699219 601.800781 Z M 163.699219 561 " style=" stroke:none;fill-rule:nonzero;fill:rgb(52.156863%,34.117647%,22.352941%);fill-opacity:1;" />
<path d="M 204.5 561 L 224.898438 561 L 224.898438 601.800781 L 204.5 601.800781 Z M 204.5 561 " style=" stroke:none;fill-rule:nonzero;fill:rgb(52.156863%,34.117647%,22.352941%);fill-opacity:1;" />
<path d="M 82.101562 561 L 102.5 561 L 102.5 601.800781 L 82.101562 601.800781 Z M 82.101562 561 " style=" stroke:none;fill-rule:nonzero;fill:rgb(52.156863%,34.117647%,22.352941%);fill-opacity:1;" />
<path d="M 245.300781 561 L 265.699219 561 L 265.699219 601.800781 L 245.300781 601.800781 Z M 245.300781 561 " style=" stroke:none;fill-rule:nonzero;fill:rgb(52.156863%,34.117647%,22.352941%);fill-opacity:1;" />
<path d="M 31.101562 591.601562 L 316.699219 591.601562 L 316.699219 612 L 31.101562 612 Z M 31.101562 591.601562 " style=" stroke:none;fill-rule:nonzero;fill:rgb(96.078431%,44.313725%,21.960784%);fill-opacity:1;" />
<path d="M 163.699219 0 L 184.101562 0 L 184.101562 30.601562 L 163.699219 30.601562 Z M 163.699219 0 " style=" stroke:none;fill-rule:nonzero;fill:rgb(60%,43.137255%,31.764706%);fill-opacity:1;" />
<path d="M 265.699219 81.601562 L 82.101562 81.601562 C 76.46875 81.585938 71.910156 77.011719 71.921875 71.378906 C 71.933594 67.003906 74.730469 63.121094 78.878906 61.730469 C 98.105469 55.308594 116.175781 45.832031 132.386719 33.660156 C 143.902344 25.070312 157.882812 20.421875 172.246094 20.398438 L 175.554688 20.398438 C 189.921875 20.421875 203.898438 25.070312 215.414062 33.660156 C 231.628906 45.820312 249.695312 55.289062 268.925781 61.699219 C 274.28125 63.441406 277.214844 69.195312 275.472656 74.554688 C 274.097656 78.78125 270.144531 81.632812 265.699219 81.601562 Z M 265.699219 81.601562 " style=" stroke:none;fill-rule:nonzero;fill:rgb(60%,43.137255%,31.764706%);fill-opacity:1;" />
<path d="M 296.300781 489.601562 L 51.5 489.601562 C 45.867188 489.601562 41.300781 485.03125 41.300781 479.398438 C 41.300781 473.765625 45.867188 469.199219 51.5 469.199219 C 60.148438 469.230469 68.058594 464.339844 71.898438 456.59375 L 83.171875 434.039062 C 84.898438 430.582031 88.433594 428.398438 92.300781 428.398438 L 255.5 428.398438 C 259.382812 428.378906 262.945312 430.566406 264.679688 434.039062 L 275.898438 456.59375 C 279.742188 464.339844 287.652344 469.230469 296.300781 469.199219 C 301.933594 469.199219 306.5 473.765625 306.5 479.398438 C 306.5 485.03125 301.933594 489.601562 296.300781 489.601562 Z M 296.300781 489.601562 " style=" stroke:none;fill-rule:nonzero;fill:rgb(60%,43.137255%,31.764706%);fill-opacity:1;" />
<path d="M 296.300781 408 L 51.5 408 C 45.867188 408 41.300781 403.433594 41.300781 397.800781 C 41.300781 392.167969 45.867188 387.601562 51.5 387.601562 C 60.148438 387.628906 68.058594 382.738281 71.898438 374.992188 L 83.171875 352.441406 C 84.898438 348.984375 88.433594 346.800781 92.300781 346.800781 L 255.5 346.800781 C 259.382812 346.777344 262.945312 348.964844 264.679688 352.441406 L 275.898438 374.992188 C 279.742188 382.738281 287.652344 387.628906 296.300781 387.601562 C 301.933594 387.601562 306.5 392.167969 306.5 397.800781 C 306.5 403.433594 301.933594 408 296.300781 408 Z M 296.300781 408 " style=" stroke:none;fill-rule:nonzero;fill:rgb(60%,43.137255%,31.764706%);fill-opacity:1;" />
<path d="M 296.300781 326.398438 L 51.5 326.398438 C 45.867188 326.398438 41.300781 321.832031 41.300781 316.199219 C 41.300781 310.566406 45.867188 306 51.5 306 C 60.148438 306.027344 68.058594 301.140625 71.898438 293.394531 L 83.171875 270.839844 C 84.898438 267.382812 88.433594 265.199219 92.300781 265.199219 L 255.5 265.199219 C 259.382812 265.179688 262.945312 267.367188 264.679688 270.839844 L 275.898438 293.394531 C 279.742188 301.140625 287.652344 306.027344 296.300781 306 C 301.933594 306 306.5 310.566406 306.5 316.199219 C 306.5 321.832031 301.933594 326.398438 296.300781 326.398438 Z M 296.300781 326.398438 " style=" stroke:none;fill-rule:nonzero;fill:rgb(60%,43.137255%,31.764706%);fill-opacity:1;" />
<path d="M 296.300781 244.800781 L 51.5 244.800781 C 45.867188 244.800781 41.300781 240.234375 41.300781 234.601562 C 41.300781 228.96875 45.867188 224.398438 51.5 224.398438 C 60.148438 224.429688 68.058594 219.539062 71.898438 211.792969 L 83.171875 189.242188 C 84.898438 185.78125 88.433594 183.597656 92.300781 183.601562 L 255.5 183.601562 C 259.382812 183.578125 262.945312 185.765625 264.679688 189.242188 L 275.898438 211.792969 C 279.742188 219.539062 287.652344 224.429688 296.300781 224.398438 C 301.933594 224.398438 306.5 228.96875 306.5 234.601562 C 306.5 240.234375 301.933594 244.800781 296.300781 244.800781 Z M 296.300781 244.800781 " style=" stroke:none;fill-rule:nonzero;fill:rgb(60%,43.137255%,31.764706%);fill-opacity:1;" />
<path d="M 286.101562 163.199219 L 61.699219 163.199219 C 56.066406 163.199219 51.5 158.632812 51.5 153 C 51.5 147.367188 56.066406 142.800781 61.699219 142.800781 C 71.328125 142.78125 80.386719 138.25 86.179688 130.558594 L 104.539062 106.078125 C 106.464844 103.511719 109.488281 102 112.699219 102 L 235.101562 102 C 238.3125 102 241.335938 103.511719 243.261719 106.078125 L 261.621094 130.558594 C 267.414062 138.246094 276.472656 142.777344 286.101562 142.800781 C 291.734375 142.800781 296.300781 147.367188 296.300781 153 C 296.300781 158.632812 291.734375 163.199219 286.101562 163.199219 Z M 286.101562 163.199219 " style=" stroke:none;fill-rule:nonzero;fill:rgb(60%,43.137255%,31.764706%);fill-opacity:1;" />
<path d="M 337.101562 571.199219 L 10.699219 571.199219 C 5.066406 571.199219 0.5 566.632812 0.5 561 C 0.5 555.367188 5.066406 550.800781 10.699219 550.800781 C 21.988281 550.816406 33.027344 547.472656 42.410156 541.203125 L 86.640625 511.714844 C 88.316406 510.601562 90.285156 510.003906 92.300781 510 L 255.5 510 C 257.515625 510.003906 259.484375 510.597656 261.160156 511.714844 L 305.386719 541.203125 C 314.773438 547.472656 325.8125 550.816406 337.101562 550.800781 C 342.734375 550.800781 347.300781 555.367188 347.300781 561 C 347.300781 566.632812 342.734375 571.199219 337.101562 571.199219 Z M 337.101562 571.199219 " style=" stroke:none;fill-rule:nonzero;fill:rgb(60%,43.137255%,31.764706%);fill-opacity:1;" />
<path d="M 268.921875 61.730469 C 255.824219 57.316406 243.253906 51.484375 231.429688 44.328125 C 215.027344 59.710938 196.21875 72.300781 175.746094 81.601562 L 265.699219 81.601562 C 271.332031 81.585938 275.890625 77.011719 275.878906 71.378906 C 275.867188 67.003906 273.070312 63.121094 268.921875 61.730469 Z M 268.921875 61.730469 " style=" stroke:none;fill-rule:nonzero;fill:rgb(52.156863%,34.117647%,22.352941%);fill-opacity:1;" />
<path d="M 286.101562 142.800781 C 276.472656 142.777344 267.414062 138.246094 261.621094 130.558594 L 243.261719 106.078125 C 242.261719 104.761719 240.949219 103.710938 239.445312 103.019531 C 213.425781 133.773438 170.820312 152.796875 140.433594 163.199219 L 286.101562 163.199219 C 291.734375 163.199219 296.300781 158.632812 296.300781 153 C 296.300781 147.367188 291.734375 142.800781 286.101562 142.800781 Z M 286.101562 142.800781 " style=" stroke:none;fill-rule:nonzero;fill:rgb(52.156863%,34.117647%,22.352941%);fill-opacity:1;" />
<path d="M 296.300781 306 C 287.652344 306.027344 279.742188 301.140625 275.898438 293.394531 L 264.679688 270.839844 C 262.945312 267.367188 259.382812 265.179688 255.5 265.199219 L 245.75 265.199219 C 227.265625 293.699219 194.371094 313.464844 164.730469 326.398438 L 296.300781 326.398438 C 301.933594 326.398438 306.5 321.832031 306.5 316.199219 C 306.5 310.566406 301.933594 306 296.300781 306 Z M 296.300781 306 " style=" stroke:none;fill-rule:nonzero;fill:rgb(52.156863%,34.117647%,22.352941%);fill-opacity:1;" />
<path d="M 296.300781 224.398438 C 287.652344 224.429688 279.742188 219.539062 275.898438 211.792969 L 264.679688 189.242188 C 262.945312 185.765625 259.382812 183.578125 255.5 183.601562 L 243.503906 183.601562 C 220.941406 213.558594 182.519531 233.121094 151.757812 244.800781 L 296.300781 244.800781 C 301.933594 244.800781 306.5 240.234375 306.5 234.601562 C 306.5 228.96875 301.933594 224.398438 296.300781 224.398438 Z M 296.300781 224.398438 " style=" stroke:none;fill-rule:nonzero;fill:rgb(52.156863%,34.117647%,22.352941%);fill-opacity:1;" />
<path d="M 296.300781 387.601562 C 287.652344 387.628906 279.742188 382.738281 275.898438 374.992188 L 264.679688 352.441406 C 262.945312 348.964844 259.382812 346.777344 255.5 346.800781 L 245.75 346.800781 C 227.265625 375.300781 194.371094 395.066406 164.730469 408 L 296.300781 408 C 301.933594 408 306.5 403.433594 306.5 397.800781 C 306.5 392.167969 301.933594 387.601562 296.300781 387.601562 Z M 296.300781 387.601562 " style=" stroke:none;fill-rule:nonzero;fill:rgb(52.156863%,34.117647%,22.352941%);fill-opacity:1;" />
<path d="M 296.300781 469.199219 C 287.652344 469.230469 279.742188 464.339844 275.898438 456.59375 L 264.679688 434.039062 C 262.945312 430.566406 259.382812 428.378906 255.5 428.398438 L 245.75 428.398438 C 227.265625 456.898438 194.371094 476.664062 164.730469 489.601562 L 296.300781 489.601562 C 301.933594 489.601562 306.5 485.03125 306.5 479.398438 C 306.5 473.765625 301.933594 469.199219 296.300781 469.199219 Z M 296.300781 469.199219 " style=" stroke:none;fill-rule:nonzero;fill:rgb(52.156863%,34.117647%,22.352941%);fill-opacity:1;" />
<path d="M 337.101562 550.800781 C 325.8125 550.816406 314.773438 547.472656 305.386719 541.203125 L 266.789062 515.46875 C 244.210938 542.234375 214.140625 561.644531 180.449219 571.199219 L 337.101562 571.199219 C 342.734375 571.199219 347.300781 566.632812 347.300781 561 C 347.300781 555.367188 342.734375 550.800781 337.101562 550.800781 Z M 337.101562 550.800781 " style=" stroke:none;fill-rule:nonzero;fill:rgb(52.156863%,34.117647%,22.352941%);fill-opacity:1;" />
<path d="M 163.699219 0 L 184.101562 0 L 184.101562 20.398438 L 163.699219 20.398438 Z M 163.699219 0 " style=" stroke:none;fill-rule:nonzero;fill:rgb(96.078431%,68.235294%,27.058824%);fill-opacity:1;" />
</g>
</svg>