<?xml version="1.0" encoding="iso-8859-1"?>
<!-- Generator: Adobe Illustrator 19.0.0, SVG Export Plug-In . SVG Version: 6.00 Build 0)  -->
<svg version="1.1" id="Capa_1" xmlns="http://www.w3.org/2000/svg" xmlns:xlink="http://www.w3.org/1999/xlink" x="0px" y="0px"
	 viewBox="0 0 511.999 511.999" style="enable-background:new 0 0 511.999 511.999;" xml:space="preserve">
<path style="fill:#F8B40E;" d="M176.628,360.094l-51.162-24.289l-25.952-12.314l55.611-136.443l35.51-8.878
	C190.636,178.17,132.59,275.556,176.628,360.094z"/>
<path style="fill:#F2171C;" d="M488.773,330.496v-62.4c0-4.917-3.986-8.903-8.903-8.903H454.09c-4.917,0-8.903,3.986-8.903,8.903
	v22.49"/>
<path style="fill:#D8131E;" d="M464.658,330.496v-71.303h-10.57c-4.917,0-8.903,3.986-8.903,8.903v22.49"/>
<path style="fill:#BF8104;" d="M225.812,266.702c33.202,0,60.117,26.915,60.117,60.117s-26.915,60.117-60.117,60.117l42.032,22.542
	l141.276-15.029l14.603-127.749l-190.446-15.029"/>
<path style="fill:#F8B40E;" d="M130.163,107.392h44.884c21.996,0,39.827,17.831,39.827,39.827l0,0
	c0,21.996-17.831,39.827-39.827,39.827h-44.884c-4.475,0-8.103-3.628-8.103-8.103v-63.451
	C122.06,111.019,125.688,107.392,130.163,107.392z"/>
<path style="fill:#DD9B0A;" d="M175.047,170.796H122.06v8.149c0,4.475,3.628,8.103,8.103,8.103h44.884
	c21.996,0,39.827-17.831,39.827-39.827l0,0c0-2.785-0.288-5.502-0.832-8.126C210.291,157.193,194.258,170.796,175.047,170.796z"/>
<polyline style="fill:#F8B40E;" points="356.518,423.01 343.553,423.01 143.101,423.01 143.101,386.938 326.938,386.938 "/>
<circle style="fill:#2C4046;" cx="415.133" cy="423.007" r="78.153"/>
<polygon style="fill:#DD9B0A;" points="167.5,187.049 102.616,360.827 99.514,323.492 155.125,187.049 "/>
<circle style="fill:#9AA7B8;" cx="415.133" cy="423.007" r="42.763"/>
<circle style="fill:#2C4046;" cx="99.521" cy="423.007" r="78.153"/>
<circle style="fill:#9AA7B8;" cx="99.521" cy="423.007" r="42.763"/>
<path style="fill:#1D2C30;" d="M99.514,473.63c-27.917,0-50.629-22.708-50.629-50.619h15.727c0,19.24,15.657,34.892,34.902,34.892
	s34.903-15.653,34.903-34.892h15.727C150.144,450.922,127.432,473.63,99.514,473.63z"/>
<path style="fill:#F8B40E;" d="M343.554,423.007c-24.673-13.27-41.467-39.393-41.467-69.456c0-43.644,35.35-78.89,78.89-78.89
	c42.056,0,125.023,22.236,131.004,135.166c0.379,7.153-5.268,13.181-12.43,13.181H343.554V423.007z"/>
<path style="fill:#DD9B0A;" d="M327.637,365.575c0-43.644,35.35-78.89,78.89-78.89c12.519,0,28.664,1.978,45.323,7.724
	c-24.748-15.239-51.951-19.748-70.873-19.748c-43.54,0-78.89,35.247-78.89,78.89c0,30.063,16.794,56.188,41.467,69.457h8.88
	C337.176,408.642,327.637,388.228,327.637,365.575z"/>
<path style="fill:#F8B40E;" d="M199.033,423.007c0-54.961-44.555-99.516-99.516-99.516S0,368.046,0,423.007H199.033z"/>
<path style="fill:#DD9B0A;" d="M116.044,324.866c-5.377-0.899-10.896-1.374-16.527-1.374C44.555,323.491,0,368.046,0,423.007h33.054
	C33.054,373.677,68.95,332.739,116.044,324.866z"/>
<path style="fill:#1D2C30;" d="M415.132,473.635c-27.916,0-50.627-22.711-50.627-50.627h15.727c0,19.244,15.656,34.9,34.9,34.9
	s34.9-15.656,34.9-34.9h15.727C465.758,450.923,443.048,473.635,415.132,473.635z"/>
<path style="fill:#A0D9F2;" d="M146.107,107.392h-15.944c-4.475,0-8.103,3.628-8.103,8.103v63.451c0,4.475,3.628,8.103,8.103,8.103
	h15.944V107.392z"/>
<path style="fill:#84BED3;" d="M146.107,170.796H122.06v8.149c0,4.475,3.628,8.103,8.103,8.103h15.944V170.796z"/>
<path style="fill:#444D56;" d="M394.887,222.411L241.95,233.204c-17.586,1.241-31.218,15.87-31.218,33.499l0,0h212.99v-17.419
	C423.724,233.659,410.474,221.311,394.887,222.411z"/>
<rect x="183.903" y="65.456" style="fill:#D3D3D3;" width="15.727" height="77.22"/>
<g>
	<path style="fill:#DD9B0A;" d="M452.203,337.361h-76.649c-4.343,0-7.864-3.521-7.864-7.864c0-4.343,3.521-7.864,7.864-7.864h76.649
		c4.343,0,7.864,3.521,7.864,7.864C460.067,333.84,456.546,337.361,452.203,337.361z"/>
	<path style="fill:#DD9B0A;" d="M432.162,362.73h-56.608c-4.343,0-7.864-3.521-7.864-7.864s3.521-7.864,7.864-7.864h56.608
		c4.343,0,7.864,3.521,7.864,7.864S436.505,362.73,432.162,362.73z"/>
	<path style="fill:#DD9B0A;" d="M412.121,387.781h-36.567c-4.343,0-7.864-3.521-7.864-7.864c0-4.343,3.521-7.864,7.864-7.864h36.567
		c4.343,0,7.864,3.521,7.864,7.864C419.985,384.261,416.464,387.781,412.121,387.781z"/>
</g>
<circle style="fill:#444D56;" cx="191.766" cy="147.216" r="23.108"/>
<path style="fill:#E6E6E6;" d="M191.763,84.029L191.763,84.029c-7.886,0-14.278-6.393-14.278-14.278V25.117
	c0-7.886,6.393-14.278,14.278-14.278l0,0c7.886,0,14.278,6.393,14.278,14.278V69.75C206.041,77.636,199.649,84.029,191.763,84.029z"
	/>
<g>
</g>
<g>
</g>
<g>
</g>
<g>
</g>
<g>
</g>
<g>
</g>
<g>
</g>
<g>
</g>
<g>
</g>
<g>
</g>
<g>
</g>
<g>
</g>
<g>
</g>
<g>
</g>
<g>
</g>
</svg>
