<svg height="480pt" viewBox="0 -4 480 480" width="480pt" xmlns="http://www.w3.org/2000/svg"><path d="m392 384h40v16h-40zm0 0" fill="#bcbcbc"/><path d="m48 384h40v16h-40zm0 0" fill="#bcbcbc"/><path d="m128 432v-176l16-48h192l16 48v176zm0 0" fill="#e0e0e0"/><path d="m352 256h-224l16-48h192zm0 0" fill="#bcbcbc"/><path d="m136 144h208v40h-208zm0 0" fill="#bcbcbc"/><path d="m96 280-16 160h88v-160zm0 0" fill="#d1d1d1"/><path d="m256 48 24.800781 35.199219c9.597657 13.601562 24 24 40 29.601562l47.199219 16v16l-24 8h-32l-16-8-16 8h-80l-16-8-16 8h-32l-24-8v-16l47.199219-16c16-5.601562 29.601562-16 40-29.601562l24.800781-35.199219" fill="#10447a"/><path d="m344 184 48 16v16l-40 8h-24l-16-8-16 8h-112l-16-8-16 8h-24l-40-8v-16l48-16zm0 0" fill="#10447a"/><path d="m96 264h16v24h-16zm0 0" fill="#e0e0e0"/><path d="m254.398438 6.398438c-4-4-9.597657-6.398438-14.398438-6.398438s-10.398438 2.398438-13.601562 5.601562l-.796876.796876c-5.601562 5.601562-7.203124 15.203124-4 22.402343l2.398438 3.199219v16h32v-16l1.601562-3.199219c4-8 2.398438-16.800781-3.203124-22.402343zm0 0" fill="#db611d"/><path d="m240 304c-22.398438 0-40 17.601562-40 40v88h80v-88c0-22.398438-17.601562-40-40-40zm0 0" fill="#4f4b47"/><path d="m344 152 24-8v-16l-47.199219-16c-16-5.601562-29.601562-16-40-29.601562l-24.800781-34.398438v29.601562c0 21.597657 9.601562 42.398438 27.199219 56l12.800781 10.398438 16 8zm0 0" fill="#0f3a60"/><path d="m136 152-24-8v-16l47.199219-16c16-5.601562 29.601562-16 40-29.601562l24.800781-34.398438v29.601562c0 21.597657-9.601562 42.398438-27.199219 56l-12.800781 10.398438-16 8zm0 0" fill="#0f3a60"/><path d="m352 224 40-8v-16l-48-16h-64l32 32 16 8zm0 0" fill="#0f3a60"/><path d="m128 224-40-8v-16l48-16h64l-32 32-16 8zm0 0" fill="#0f3a60"/><path d="m96 280-3.199219 32h75.199219v-32zm0 0" fill="#bcbcbc"/><path d="m384 280 16 160h-88v-160zm0 0" fill="#d1d1d1"/><path d="m368 264h16v24h-16zm0 0" fill="#e0e0e0"/><path d="m384 280 3.199219 32h-75.199219v-32zm0 0" fill="#bcbcbc"/><path d="m16 432h448v32h-448zm0 0" fill="#a09f9f"/><g fill="#bcbcbc"><path d="m424 376h16v56h-16zm0 0"/><path d="m456 376h16v88h-16zm0 0"/><path d="m432 392h32v16h-32zm0 0"/><path d="m40 376h16v56h-16zm0 0"/><path d="m8 376h16v88h-16zm0 0"/><path d="m16 392h32v16h-32zm0 0"/></g><path d="m0 456h480v16h-480zm0 0" fill="#898989"/></svg>